<svg xmlns="http://www.w3.org/2000/svg" xmlns:xlink="http://www.w3.org/1999/xlink" width="100" zoomAndPan="magnify" viewBox="0 0 75 74.999997" height="100" preserveAspectRatio="xMidYMid meet" version="1.0"><defs><clipPath id="e7e10d9aa3"><path d="M 2.539062 30 L 18 30 L 18 67 L 2.539062 67 Z M 2.539062 30 " clip-rule="nonzero"/></clipPath><clipPath id="0b4875cde3"><path d="M 54 13 L 73.039062 13 L 73.039062 51 L 54 51 Z M 54 13 " clip-rule="nonzero"/></clipPath><clipPath id="8e2f490737"><path d="M 2.539062 2.539062 L 33 2.539062 L 33 36 L 2.539062 36 Z M 2.539062 2.539062 " clip-rule="nonzero"/></clipPath><clipPath id="c4043615ad"><path d="M 19 53 L 41 53 L 41 73.039062 L 19 73.039062 Z M 19 53 " clip-rule="nonzero"/></clipPath><clipPath id="16736e86c9"><path d="M 37 52 L 73.039062 52 L 73.039062 73.039062 L 37 73.039062 Z M 37 52 " clip-rule="nonzero"/></clipPath><clipPath id="0f4207b270"><path d="M 62 52 L 73.039062 52 L 73.039062 73.039062 L 62 73.039062 Z M 62 52 " clip-rule="nonzero"/></clipPath><clipPath id="bb27b85edf"><path d="M 37 65 L 66 65 L 66 73.039062 L 37 73.039062 Z M 37 65 " clip-rule="nonzero"/></clipPath></defs><rect x="-7.5" width="90" fill="#ffffff" y="-7.5" height="89.999996" fill-opacity="1"/><rect x="-7.5" width="90" fill="#ffffff" y="-7.5" height="89.999996" fill-opacity="1"/><rect x="-7.5" width="90" fill="#ffffff" y="-7.5" height="89.999996" fill-opacity="1"/><g clip-path="url(#e7e10d9aa3)"><path fill="#231f20" d="M 16.386719 66.746094 L 6.316406 66.746094 C 5.816406 66.746094 5.335938 66.648438 4.871094 66.457031 C 4.410156 66.265625 4 65.992188 3.648438 65.640625 C 3.292969 65.285156 3.019531 64.875 2.828125 64.414062 C 2.636719 63.953125 2.539062 63.46875 2.539062 62.96875 L 2.539062 31.496094 C 2.539062 31.328125 2.574219 31.167969 2.636719 31.015625 C 2.699219 30.859375 2.789062 30.722656 2.910156 30.605469 C 3.027344 30.488281 3.164062 30.394531 3.316406 30.332031 C 3.472656 30.269531 3.632812 30.238281 3.800781 30.238281 C 3.964844 30.238281 4.125 30.269531 4.28125 30.332031 C 4.433594 30.394531 4.570312 30.488281 4.6875 30.605469 C 4.808594 30.722656 4.898438 30.859375 4.960938 31.015625 C 5.027344 31.167969 5.058594 31.328125 5.058594 31.496094 L 5.058594 62.96875 C 5.058594 63.136719 5.089844 63.296875 5.152344 63.449219 C 5.21875 63.605469 5.308594 63.742188 5.425781 63.859375 C 5.546875 63.976562 5.679688 64.066406 5.835938 64.132812 C 5.988281 64.195312 6.148438 64.226562 6.316406 64.226562 L 16.386719 64.226562 C 16.554688 64.226562 16.714844 64.257812 16.871094 64.324219 C 17.023438 64.386719 17.160156 64.476562 17.277344 64.597656 C 17.398438 64.714844 17.488281 64.851562 17.550781 65.003906 C 17.617188 65.160156 17.648438 65.320312 17.648438 65.488281 C 17.648438 65.652344 17.617188 65.8125 17.550781 65.96875 C 17.488281 66.121094 17.398438 66.257812 17.277344 66.375 C 17.160156 66.496094 17.023438 66.585938 16.871094 66.648438 C 16.714844 66.714844 16.554688 66.746094 16.386719 66.746094 Z M 16.386719 66.746094 " fill-opacity="1" fill-rule="nonzero"/></g><g clip-path="url(#0b4875cde3)"><path fill="#231f20" d="M 71.78125 50.378906 C 71.613281 50.378906 71.453125 50.347656 71.300781 50.285156 C 71.144531 50.21875 71.007812 50.128906 70.890625 50.011719 C 70.773438 49.894531 70.683594 49.757812 70.617188 49.601562 C 70.554688 49.449219 70.523438 49.289062 70.523438 49.121094 L 70.523438 17.648438 C 70.523438 17.480469 70.492188 17.320312 70.425781 17.164062 C 70.363281 17.011719 70.273438 16.875 70.152344 16.757812 C 70.035156 16.640625 69.898438 16.546875 69.746094 16.484375 C 69.589844 16.421875 69.429688 16.386719 69.261719 16.386719 L 55.414062 16.386719 C 55.25 16.386719 55.085938 16.355469 54.933594 16.292969 C 54.78125 16.230469 54.644531 16.136719 54.523438 16.019531 C 54.40625 15.902344 54.316406 15.765625 54.253906 15.613281 C 54.1875 15.457031 54.15625 15.296875 54.15625 15.128906 C 54.15625 14.960938 54.1875 14.800781 54.253906 14.648438 C 54.316406 14.492188 54.40625 14.359375 54.523438 14.238281 C 54.644531 14.121094 54.78125 14.03125 54.933594 13.964844 C 55.085938 13.902344 55.25 13.871094 55.414062 13.871094 L 69.261719 13.871094 C 69.765625 13.871094 70.246094 13.964844 70.707031 14.15625 C 71.171875 14.351562 71.578125 14.621094 71.933594 14.976562 C 72.289062 15.332031 72.5625 15.738281 72.753906 16.203125 C 72.945312 16.664062 73.039062 17.148438 73.039062 17.648438 L 73.039062 49.121094 C 73.039062 49.289062 73.007812 49.449219 72.945312 49.601562 C 72.878906 49.757812 72.789062 49.894531 72.671875 50.011719 C 72.554688 50.128906 72.417969 50.21875 72.261719 50.285156 C 72.109375 50.347656 71.949219 50.378906 71.78125 50.378906 Z M 71.78125 50.378906 " fill-opacity="1" fill-rule="nonzero"/></g><path fill="#231f20" d="M 17.648438 61.710938 L 11.351562 61.710938 C 10.851562 61.710938 10.371094 61.613281 9.90625 61.421875 C 9.445312 61.230469 9.035156 60.957031 8.683594 60.605469 C 8.328125 60.25 8.054688 59.839844 7.863281 59.378906 C 7.671875 58.914062 7.574219 58.433594 7.574219 57.933594 L 7.574219 36.53125 C 7.574219 36.363281 7.609375 36.203125 7.671875 36.050781 C 7.734375 35.894531 7.828125 35.757812 7.945312 35.640625 C 8.0625 35.523438 8.199219 35.433594 8.351562 35.367188 C 8.507812 35.304688 8.667969 35.273438 8.835938 35.273438 C 9 35.273438 9.164062 35.304688 9.316406 35.367188 C 9.472656 35.433594 9.605469 35.523438 9.726562 35.640625 C 9.84375 35.757812 9.933594 35.894531 10 36.050781 C 10.0625 36.203125 10.09375 36.363281 10.09375 36.53125 L 10.09375 57.933594 C 10.09375 58.101562 10.125 58.261719 10.191406 58.414062 C 10.253906 58.570312 10.34375 58.707031 10.460938 58.824219 C 10.582031 58.941406 10.71875 59.03125 10.871094 59.097656 C 11.023438 59.160156 11.1875 59.191406 11.351562 59.191406 L 17.648438 59.191406 C 17.8125 59.191406 17.976562 59.222656 18.128906 59.289062 C 18.285156 59.351562 18.417969 59.441406 18.539062 59.5625 C 18.65625 59.679688 18.746094 59.816406 18.8125 59.96875 C 18.875 60.125 18.90625 60.285156 18.90625 60.449219 C 18.90625 60.617188 18.875 60.777344 18.8125 60.933594 C 18.746094 61.085938 18.65625 61.222656 18.539062 61.339844 C 18.417969 61.460938 18.285156 61.550781 18.128906 61.613281 C 17.976562 61.679688 17.8125 61.710938 17.648438 61.710938 Z M 17.648438 61.710938 " fill-opacity="1" fill-rule="nonzero"/><path fill="#231f20" d="M 66.746094 50.378906 C 66.578125 50.378906 66.417969 50.347656 66.265625 50.285156 C 66.109375 50.21875 65.972656 50.128906 65.855469 50.011719 C 65.738281 49.894531 65.644531 49.757812 65.582031 49.601562 C 65.519531 49.449219 65.488281 49.289062 65.488281 49.121094 L 65.488281 22.683594 C 65.488281 22.515625 65.453125 22.355469 65.390625 22.203125 C 65.328125 22.046875 65.234375 21.910156 65.117188 21.792969 C 65 21.675781 64.863281 21.582031 64.710938 21.519531 C 64.554688 21.457031 64.394531 21.425781 64.226562 21.425781 L 57.933594 21.425781 C 57.765625 21.425781 57.605469 21.390625 57.453125 21.328125 C 57.296875 21.265625 57.160156 21.171875 57.042969 21.054688 C 56.925781 20.9375 56.832031 20.800781 56.769531 20.648438 C 56.707031 20.492188 56.675781 20.332031 56.675781 20.164062 C 56.675781 20 56.707031 19.835938 56.769531 19.683594 C 56.832031 19.53125 56.925781 19.394531 57.042969 19.273438 C 57.160156 19.15625 57.296875 19.066406 57.453125 19.003906 C 57.605469 18.9375 57.765625 18.90625 57.933594 18.90625 L 64.226562 18.90625 C 64.730469 18.90625 65.210938 19.003906 65.671875 19.195312 C 66.136719 19.386719 66.542969 19.660156 66.898438 20.011719 C 67.253906 20.367188 67.527344 20.773438 67.71875 21.238281 C 67.910156 21.699219 68.003906 22.183594 68.003906 22.683594 L 68.003906 49.121094 C 68.003906 49.289062 67.972656 49.449219 67.910156 49.601562 C 67.84375 49.757812 67.753906 49.894531 67.636719 50.011719 C 67.519531 50.128906 67.382812 50.21875 67.226562 50.285156 C 67.074219 50.347656 66.914062 50.378906 66.746094 50.378906 Z M 66.746094 50.378906 " fill-opacity="1" fill-rule="nonzero"/><path fill="#231f20" d="M 23.941406 45.34375 L 13.871094 45.34375 C 13.703125 45.34375 13.542969 45.3125 13.390625 45.25 C 13.234375 45.183594 13.097656 45.09375 12.980469 44.976562 C 12.863281 44.855469 12.769531 44.722656 12.707031 44.566406 C 12.644531 44.414062 12.613281 44.25 12.613281 44.085938 C 12.613281 43.917969 12.644531 43.757812 12.707031 43.601562 C 12.769531 43.449219 12.863281 43.3125 12.980469 43.195312 C 13.097656 43.078125 13.234375 42.984375 13.390625 42.921875 C 13.542969 42.859375 13.703125 42.824219 13.871094 42.824219 L 23.941406 42.824219 C 24.109375 42.824219 24.269531 42.859375 24.425781 42.921875 C 24.578125 42.984375 24.714844 43.078125 24.832031 43.195312 C 24.949219 43.3125 25.042969 43.449219 25.105469 43.601562 C 25.167969 43.757812 25.199219 43.917969 25.199219 44.085938 C 25.199219 44.25 25.167969 44.414062 25.105469 44.566406 C 25.042969 44.722656 24.949219 44.855469 24.832031 44.976562 C 24.714844 45.09375 24.578125 45.183594 24.425781 45.25 C 24.269531 45.3125 24.109375 45.34375 23.941406 45.34375 Z M 23.941406 45.34375 " fill-opacity="1" fill-rule="nonzero"/><path fill="#231f20" d="M 28.976562 52.898438 L 13.871094 52.898438 C 13.703125 52.898438 13.542969 52.867188 13.390625 52.800781 C 13.234375 52.738281 13.097656 52.648438 12.980469 52.527344 C 12.863281 52.410156 12.769531 52.273438 12.707031 52.121094 C 12.644531 51.964844 12.613281 51.804688 12.613281 51.636719 C 12.613281 51.472656 12.644531 51.3125 12.707031 51.15625 C 12.769531 51.003906 12.863281 50.867188 12.980469 50.75 C 13.097656 50.628906 13.234375 50.539062 13.390625 50.476562 C 13.542969 50.410156 13.703125 50.378906 13.871094 50.378906 L 28.976562 50.378906 C 29.144531 50.378906 29.304688 50.410156 29.460938 50.476562 C 29.613281 50.539062 29.75 50.628906 29.867188 50.75 C 29.984375 50.867188 30.078125 51.003906 30.140625 51.15625 C 30.203125 51.3125 30.238281 51.472656 30.238281 51.636719 C 30.238281 51.804688 30.203125 51.964844 30.140625 52.121094 C 30.078125 52.273438 29.984375 52.410156 29.867188 52.527344 C 29.75 52.648438 29.613281 52.738281 29.460938 52.800781 C 29.304688 52.867188 29.144531 52.898438 28.976562 52.898438 Z M 28.976562 52.898438 " fill-opacity="1" fill-rule="nonzero"/><g clip-path="url(#8e2f490737)"><path fill="#231f20" d="M 21.058594 35.273438 L 16.753906 35.273438 C 16.339844 35.273438 15.9375 35.199219 15.546875 35.054688 C 15.160156 34.910156 14.808594 34.699219 14.496094 34.425781 C 14.183594 34.152344 13.929688 33.832031 13.730469 33.46875 C 13.535156 33.101562 13.410156 32.714844 13.355469 32.300781 C 13.023438 32.554688 12.660156 32.742188 12.261719 32.863281 C 11.863281 32.984375 11.457031 33.03125 11.039062 33.007812 C 10.625 32.980469 10.226562 32.878906 9.847656 32.710938 C 9.46875 32.539062 9.128906 32.304688 8.835938 32.011719 L 5.800781 28.976562 C 5.511719 28.683594 5.28125 28.347656 5.109375 27.96875 C 4.941406 27.59375 4.84375 27.199219 4.816406 26.785156 C 4.789062 26.371094 4.835938 25.96875 4.957031 25.570312 C 5.074219 25.175781 5.261719 24.8125 5.511719 24.484375 C 5.097656 24.429688 4.707031 24.300781 4.339844 24.101562 C 3.972656 23.90625 3.652344 23.648438 3.378906 23.332031 C 3.105469 23.019531 2.894531 22.664062 2.75 22.273438 C 2.605469 21.882812 2.535156 21.476562 2.539062 21.058594 L 2.539062 16.753906 C 2.539062 16.339844 2.613281 15.9375 2.757812 15.546875 C 2.902344 15.160156 3.113281 14.808594 3.386719 14.496094 C 3.660156 14.183594 3.980469 13.929688 4.34375 13.730469 C 4.710938 13.535156 5.101562 13.410156 5.511719 13.355469 C 5.257812 13.023438 5.070312 12.660156 4.953125 12.261719 C 4.832031 11.863281 4.785156 11.457031 4.8125 11.039062 C 4.835938 10.625 4.9375 10.226562 5.105469 9.847656 C 5.277344 9.46875 5.507812 9.128906 5.800781 8.835938 L 8.835938 5.800781 C 9.128906 5.511719 9.464844 5.28125 9.84375 5.113281 C 10.222656 4.945312 10.617188 4.847656 11.027344 4.820312 C 11.441406 4.792969 11.84375 4.839844 12.242188 4.960938 C 12.636719 5.078125 13 5.261719 13.328125 5.511719 C 13.382812 5.097656 13.511719 4.707031 13.710938 4.339844 C 13.90625 3.972656 14.164062 3.652344 14.480469 3.378906 C 14.792969 3.105469 15.148438 2.894531 15.539062 2.75 C 15.929688 2.605469 16.335938 2.535156 16.753906 2.539062 L 21.058594 2.539062 C 21.472656 2.539062 21.875 2.613281 22.265625 2.757812 C 22.652344 2.902344 23.003906 3.113281 23.316406 3.386719 C 23.628906 3.660156 23.886719 3.980469 24.082031 4.34375 C 24.277344 4.710938 24.402344 5.101562 24.457031 5.511719 C 24.789062 5.257812 25.152344 5.070312 25.550781 4.953125 C 25.949219 4.832031 26.355469 4.785156 26.773438 4.8125 C 27.1875 4.835938 27.585938 4.9375 27.964844 5.105469 C 28.34375 5.277344 28.683594 5.507812 28.976562 5.800781 L 32.011719 8.835938 C 32.132812 8.953125 32.226562 9.089844 32.292969 9.242188 C 32.355469 9.398438 32.390625 9.558594 32.394531 9.726562 C 32.394531 9.894531 32.363281 10.058594 32.300781 10.214844 C 32.238281 10.371094 32.148438 10.507812 32.03125 10.628906 C 31.914062 10.75 31.777344 10.84375 31.621094 10.910156 C 31.46875 10.972656 31.304688 11.007812 31.136719 11.011719 C 30.96875 11.011719 30.808594 10.980469 30.652344 10.917969 C 30.496094 10.855469 30.355469 10.765625 30.238281 10.648438 L 27.164062 7.574219 C 26.988281 7.410156 26.777344 7.328125 26.535156 7.328125 C 26.292969 7.328125 26.082031 7.410156 25.90625 7.574219 L 24.117188 9.375 C 23.9375 9.554688 23.722656 9.667969 23.472656 9.714844 C 23.222656 9.765625 22.980469 9.738281 22.746094 9.640625 C 22.511719 9.542969 22.324219 9.390625 22.179688 9.179688 C 22.039062 8.96875 21.96875 8.738281 21.964844 8.484375 L 21.964844 5.964844 C 21.96875 5.710938 21.882812 5.496094 21.703125 5.320312 C 21.527344 5.140625 21.3125 5.054688 21.058594 5.058594 L 16.753906 5.058594 C 16.503906 5.054688 16.289062 5.140625 16.113281 5.316406 C 15.9375 5.492188 15.847656 5.703125 15.847656 5.953125 L 15.847656 8.46875 C 15.847656 8.722656 15.773438 8.957031 15.632812 9.167969 C 15.492188 9.378906 15.300781 9.53125 15.066406 9.628906 C 14.832031 9.726562 14.589844 9.75 14.339844 9.703125 C 14.089844 9.65625 13.875 9.542969 13.695312 9.363281 L 11.90625 7.574219 C 11.730469 7.40625 11.519531 7.320312 11.277344 7.320312 C 11.035156 7.320312 10.824219 7.40625 10.648438 7.574219 L 7.574219 10.648438 C 7.410156 10.824219 7.328125 11.035156 7.328125 11.277344 C 7.328125 11.519531 7.410156 11.730469 7.574219 11.90625 L 9.363281 13.683594 C 9.5625 13.867188 9.683594 14.09375 9.734375 14.359375 C 9.789062 14.628906 9.753906 14.882812 9.640625 15.128906 C 9.542969 15.363281 9.390625 15.554688 9.179688 15.695312 C 8.96875 15.835938 8.738281 15.910156 8.484375 15.910156 L 5.964844 15.910156 C 5.714844 15.910156 5.503906 16 5.328125 16.175781 C 5.152344 16.355469 5.066406 16.566406 5.070312 16.816406 L 5.070312 21.121094 C 5.066406 21.371094 5.152344 21.585938 5.328125 21.761719 C 5.503906 21.941406 5.714844 22.027344 5.964844 22.027344 L 8.484375 22.027344 C 8.738281 22.03125 8.96875 22.101562 9.179688 22.242188 C 9.390625 22.386719 9.542969 22.574219 9.640625 22.808594 C 9.738281 23.042969 9.765625 23.285156 9.714844 23.535156 C 9.667969 23.785156 9.554688 24 9.375 24.179688 L 7.574219 25.90625 C 7.40625 26.082031 7.320312 26.292969 7.320312 26.535156 C 7.320312 26.78125 7.40625 26.988281 7.574219 27.164062 L 10.648438 30.238281 C 10.824219 30.402344 11.035156 30.484375 11.277344 30.484375 C 11.519531 30.484375 11.730469 30.402344 11.90625 30.238281 L 13.683594 28.449219 C 13.867188 28.25 14.09375 28.128906 14.359375 28.078125 C 14.628906 28.027344 14.882812 28.058594 15.128906 28.171875 C 15.363281 28.269531 15.554688 28.421875 15.695312 28.632812 C 15.835938 28.84375 15.910156 29.078125 15.910156 29.332031 L 15.910156 31.847656 C 15.910156 32.097656 16 32.308594 16.175781 32.484375 C 16.355469 32.660156 16.566406 32.746094 16.816406 32.742188 L 21.121094 32.742188 C 21.503906 32.746094 21.777344 32.574219 21.941406 32.226562 C 22.011719 32.078125 22.113281 31.949219 22.234375 31.839844 C 22.359375 31.730469 22.496094 31.648438 22.652344 31.59375 C 22.808594 31.539062 22.96875 31.515625 23.132812 31.523438 C 23.296875 31.535156 23.457031 31.574219 23.605469 31.644531 C 23.753906 31.710938 23.882812 31.808594 23.996094 31.929688 C 24.109375 32.050781 24.191406 32.1875 24.25 32.34375 C 24.308594 32.5 24.332031 32.65625 24.328125 32.824219 C 24.324219 32.988281 24.285156 33.144531 24.21875 33.296875 C 23.933594 33.910156 23.503906 34.394531 22.929688 34.75 C 22.359375 35.109375 21.734375 35.285156 21.058594 35.273438 Z M 21.058594 35.273438 " fill-opacity="1" fill-rule="nonzero"/></g><path fill="#231f20" d="M 18.90625 24.484375 C 18.539062 24.484375 18.175781 24.449219 17.820312 24.375 C 17.460938 24.304688 17.109375 24.199219 16.773438 24.058594 C 16.433594 23.917969 16.113281 23.746094 15.808594 23.542969 C 15.503906 23.339844 15.222656 23.109375 14.960938 22.851562 C 14.703125 22.589844 14.472656 22.308594 14.269531 22.003906 C 14.066406 21.699219 13.894531 21.378906 13.753906 21.039062 C 13.613281 20.703125 13.507812 20.355469 13.4375 19.996094 C 13.363281 19.636719 13.328125 19.273438 13.328125 18.90625 C 13.328125 18.539062 13.363281 18.175781 13.4375 17.820312 C 13.507812 17.460938 13.613281 17.109375 13.753906 16.773438 C 13.894531 16.433594 14.066406 16.113281 14.269531 15.808594 C 14.472656 15.503906 14.703125 15.222656 14.960938 14.960938 C 15.222656 14.703125 15.503906 14.472656 15.808594 14.269531 C 16.113281 14.066406 16.433594 13.894531 16.773438 13.753906 C 17.109375 13.613281 17.460938 13.507812 17.820312 13.4375 C 18.175781 13.363281 18.539062 13.328125 18.90625 13.328125 C 19.273438 13.328125 19.636719 13.363281 19.996094 13.4375 C 20.355469 13.507812 20.703125 13.613281 21.039062 13.753906 C 21.378906 13.894531 21.699219 14.066406 22.003906 14.269531 C 22.308594 14.472656 22.589844 14.703125 22.851562 14.960938 C 23.109375 15.222656 23.339844 15.503906 23.542969 15.808594 C 23.746094 16.113281 23.917969 16.433594 24.058594 16.773438 C 24.199219 17.109375 24.304688 17.460938 24.375 17.820312 C 24.449219 18.175781 24.484375 18.539062 24.484375 18.90625 C 24.484375 19.273438 24.445312 19.632812 24.375 19.992188 C 24.300781 20.351562 24.195312 20.699219 24.054688 21.039062 C 23.914062 21.375 23.742188 21.699219 23.539062 22 C 23.335938 22.304688 23.105469 22.585938 22.847656 22.847656 C 22.585938 23.105469 22.304688 23.335938 22 23.539062 C 21.699219 23.742188 21.375 23.914062 21.039062 24.054688 C 20.699219 24.195312 20.351562 24.300781 19.992188 24.375 C 19.632812 24.445312 19.273438 24.484375 18.90625 24.484375 Z M 18.90625 15.847656 C 18.5 15.847656 18.109375 15.925781 17.734375 16.078125 C 17.359375 16.234375 17.03125 16.457031 16.742188 16.742188 C 16.457031 17.03125 16.234375 17.359375 16.078125 17.734375 C 15.925781 18.109375 15.847656 18.5 15.847656 18.90625 C 15.847656 19.3125 15.925781 19.703125 16.078125 20.078125 C 16.234375 20.453125 16.457031 20.78125 16.742188 21.070312 C 17.03125 21.355469 17.359375 21.578125 17.734375 21.734375 C 18.109375 21.886719 18.5 21.964844 18.90625 21.964844 C 19.3125 21.964844 19.703125 21.886719 20.078125 21.734375 C 20.453125 21.578125 20.78125 21.355469 21.070312 21.070312 C 21.355469 20.78125 21.578125 20.453125 21.734375 20.078125 C 21.886719 19.703125 21.964844 19.3125 21.964844 18.90625 C 21.964844 18.5 21.886719 18.109375 21.734375 17.734375 C 21.578125 17.359375 21.355469 17.03125 21.070312 16.742188 C 20.78125 16.457031 20.453125 16.234375 20.078125 16.078125 C 19.703125 15.925781 19.3125 15.847656 18.90625 15.847656 Z M 18.90625 15.847656 " fill-opacity="1" fill-rule="nonzero"/><path fill="#231f20" d="M 42.285156 41.566406 L 38.332031 41.566406 C 37.953125 41.566406 37.585938 41.5 37.230469 41.375 C 36.878906 41.246094 36.554688 41.058594 36.261719 40.816406 C 35.972656 40.578125 35.730469 40.292969 35.539062 39.96875 C 35.347656 39.644531 35.21875 39.292969 35.148438 38.921875 C 34.835938 39.136719 34.496094 39.289062 34.132812 39.382812 C 33.765625 39.476562 33.394531 39.507812 33.019531 39.472656 C 32.644531 39.441406 32.285156 39.34375 31.945312 39.183594 C 31.601562 39.023438 31.296875 38.8125 31.03125 38.546875 L 28.222656 35.738281 C 27.957031 35.472656 27.742188 35.167969 27.582031 34.824219 C 27.421875 34.484375 27.324219 34.125 27.289062 33.75 C 27.257812 33.371094 27.285156 33 27.382812 32.636719 C 27.476562 32.269531 27.632812 31.933594 27.84375 31.621094 C 27.472656 31.550781 27.125 31.421875 26.800781 31.226562 C 26.472656 31.035156 26.191406 30.796875 25.949219 30.503906 C 25.707031 30.214844 25.523438 29.890625 25.394531 29.535156 C 25.265625 29.179688 25.203125 28.8125 25.199219 28.4375 L 25.199219 24.484375 C 25.203125 24.105469 25.265625 23.738281 25.394531 23.382812 C 25.523438 23.027344 25.707031 22.707031 25.949219 22.414062 C 26.191406 22.125 26.472656 21.882812 26.800781 21.691406 C 27.125 21.5 27.472656 21.367188 27.84375 21.296875 C 27.632812 20.988281 27.476562 20.648438 27.382812 20.285156 C 27.285156 19.917969 27.257812 19.546875 27.289062 19.171875 C 27.324219 18.796875 27.421875 18.4375 27.582031 18.09375 C 27.742188 17.753906 27.957031 17.449219 28.222656 17.183594 L 31.03125 14.375 C 31.300781 14.113281 31.609375 13.90625 31.949219 13.753906 C 32.289062 13.597656 32.648438 13.5 33.023438 13.46875 C 33.394531 13.433594 33.765625 13.460938 34.128906 13.550781 C 34.492188 13.644531 34.832031 13.789062 35.148438 13.996094 C 35.21875 13.625 35.347656 13.277344 35.539062 12.953125 C 35.730469 12.625 35.972656 12.34375 36.261719 12.101562 C 36.554688 11.859375 36.878906 11.675781 37.230469 11.546875 C 37.585938 11.417969 37.953125 11.355469 38.332031 11.351562 L 42.285156 11.351562 C 42.664062 11.355469 43.027344 11.417969 43.382812 11.546875 C 43.738281 11.675781 44.0625 11.859375 44.351562 12.101562 C 44.644531 12.34375 44.886719 12.625 45.078125 12.953125 C 45.269531 13.277344 45.398438 13.625 45.46875 13.996094 C 45.785156 13.789062 46.121094 13.644531 46.488281 13.550781 C 46.851562 13.460938 47.21875 13.433594 47.59375 13.46875 C 47.96875 13.5 48.324219 13.597656 48.667969 13.753906 C 49.007812 13.90625 49.316406 14.113281 49.585938 14.375 L 52.394531 17.183594 C 52.660156 17.449219 52.875 17.753906 53.035156 18.09375 C 53.195312 18.4375 53.292969 18.796875 53.324219 19.171875 C 53.359375 19.546875 53.328125 19.917969 53.234375 20.285156 C 53.140625 20.648438 52.984375 20.988281 52.773438 21.296875 C 53.144531 21.367188 53.492188 21.5 53.816406 21.691406 C 54.140625 21.882812 54.425781 22.125 54.667969 22.414062 C 54.90625 22.707031 55.09375 23.027344 55.222656 23.382812 C 55.351562 23.738281 55.414062 24.105469 55.414062 24.484375 L 55.414062 28.4375 C 55.414062 28.8125 55.351562 29.179688 55.222656 29.535156 C 55.09375 29.890625 54.90625 30.214844 54.667969 30.503906 C 54.425781 30.796875 54.140625 31.035156 53.816406 31.226562 C 53.492188 31.421875 53.144531 31.550781 52.773438 31.621094 C 52.984375 31.933594 53.140625 32.269531 53.234375 32.636719 C 53.328125 33 53.359375 33.371094 53.324219 33.75 C 53.292969 34.125 53.195312 34.484375 53.035156 34.824219 C 52.875 35.167969 52.660156 35.472656 52.394531 35.738281 L 49.585938 38.546875 C 49.320312 38.8125 49.015625 39.023438 48.671875 39.183594 C 48.332031 39.34375 47.972656 39.441406 47.597656 39.472656 C 47.21875 39.507812 46.851562 39.476562 46.484375 39.382812 C 46.121094 39.289062 45.78125 39.136719 45.46875 38.921875 C 45.398438 39.292969 45.269531 39.644531 45.078125 39.96875 C 44.886719 40.292969 44.644531 40.578125 44.351562 40.816406 C 44.0625 41.058594 43.738281 41.246094 43.382812 41.375 C 43.027344 41.5 42.664062 41.566406 42.285156 41.566406 Z M 36.355469 34.757812 C 36.519531 34.753906 36.679688 34.785156 36.832031 34.84375 C 37.070312 34.941406 37.261719 35.097656 37.402344 35.3125 C 37.542969 35.523438 37.617188 35.757812 37.613281 36.015625 L 37.613281 38.332031 C 37.617188 38.527344 37.6875 38.695312 37.828125 38.835938 C 37.96875 38.976562 38.136719 39.046875 38.332031 39.050781 L 42.285156 39.050781 C 42.480469 39.046875 42.648438 38.976562 42.789062 38.835938 C 42.925781 38.695312 43 38.527344 43.003906 38.332031 L 43.003906 36.015625 C 43 35.757812 43.070312 35.523438 43.214844 35.3125 C 43.355469 35.097656 43.546875 34.941406 43.78125 34.84375 C 44.019531 34.746094 44.261719 34.722656 44.511719 34.773438 C 44.761719 34.824219 44.976562 34.941406 45.15625 35.121094 L 46.792969 36.757812 C 46.933594 36.894531 47.101562 36.964844 47.300781 36.964844 C 47.5 36.964844 47.667969 36.894531 47.8125 36.757812 L 50.605469 34.011719 C 50.75 33.875 50.820312 33.707031 50.820312 33.511719 C 50.820312 33.308594 50.75 33.136719 50.605469 32.992188 L 48.96875 31.355469 C 48.789062 31.175781 48.671875 30.964844 48.621094 30.714844 C 48.574219 30.464844 48.59375 30.21875 48.691406 29.984375 C 48.789062 29.746094 48.945312 29.558594 49.160156 29.414062 C 49.371094 29.273438 49.605469 29.203125 49.863281 29.203125 L 52.179688 29.203125 C 52.375 29.199219 52.542969 29.128906 52.683594 28.992188 C 52.824219 28.851562 52.894531 28.683594 52.898438 28.488281 L 52.898438 24.484375 C 52.894531 24.285156 52.824219 24.117188 52.683594 23.980469 C 52.542969 23.839844 52.375 23.769531 52.179688 23.765625 L 49.863281 23.765625 C 49.605469 23.765625 49.371094 23.695312 49.160156 23.554688 C 48.945312 23.414062 48.789062 23.222656 48.691406 22.984375 C 48.59375 22.75 48.574219 22.507812 48.621094 22.257812 C 48.671875 22.007812 48.789062 21.792969 48.96875 21.613281 L 50.605469 19.976562 C 50.75 19.835938 50.820312 19.664062 50.820312 19.460938 C 50.820312 19.261719 50.75 19.09375 50.605469 18.957031 L 47.863281 16.160156 C 47.71875 16.023438 47.550781 15.953125 47.351562 15.953125 C 47.152344 15.953125 46.984375 16.023438 46.84375 16.160156 L 45.207031 17.796875 C 45.027344 17.980469 44.8125 18.09375 44.5625 18.144531 C 44.3125 18.195312 44.070312 18.171875 43.832031 18.074219 C 43.597656 17.976562 43.40625 17.824219 43.265625 17.609375 C 43.121094 17.394531 43.050781 17.160156 43.050781 16.90625 L 43.050781 14.589844 C 43.050781 14.390625 42.976562 14.222656 42.839844 14.085938 C 42.699219 13.945312 42.53125 13.875 42.335938 13.871094 L 38.332031 13.871094 C 38.136719 13.875 37.96875 13.945312 37.828125 14.085938 C 37.6875 14.222656 37.617188 14.390625 37.613281 14.589844 L 37.613281 16.90625 C 37.617188 17.160156 37.542969 17.394531 37.402344 17.609375 C 37.261719 17.824219 37.070312 17.976562 36.832031 18.074219 C 36.597656 18.171875 36.355469 18.195312 36.105469 18.144531 C 35.855469 18.09375 35.640625 17.980469 35.460938 17.796875 L 33.824219 16.160156 C 33.683594 16.023438 33.511719 15.953125 33.316406 15.953125 C 33.117188 15.953125 32.945312 16.023438 32.804688 16.160156 L 30.011719 18.90625 C 29.867188 19.042969 29.796875 19.210938 29.796875 19.410156 C 29.792969 19.613281 29.867188 19.785156 30.011719 19.925781 L 31.648438 21.5625 C 31.828125 21.742188 31.941406 21.957031 31.992188 22.207031 C 32.042969 22.457031 32.019531 22.699219 31.921875 22.933594 C 31.828125 23.171875 31.671875 23.363281 31.457031 23.503906 C 31.246094 23.644531 31.007812 23.714844 30.753906 23.714844 L 28.4375 23.714844 C 28.238281 23.71875 28.070312 23.789062 27.933594 23.929688 C 27.792969 24.070312 27.722656 24.238281 27.71875 24.433594 L 27.71875 28.386719 C 27.722656 28.582031 27.792969 28.75 27.933594 28.890625 C 28.070312 29.027344 28.238281 29.101562 28.4375 29.105469 L 30.753906 29.105469 C 31.007812 29.101562 31.246094 29.171875 31.457031 29.316406 C 31.671875 29.457031 31.828125 29.648438 31.921875 29.882812 C 32.019531 30.121094 32.042969 30.363281 31.992188 30.613281 C 31.941406 30.863281 31.828125 31.078125 31.648438 31.257812 L 30.011719 32.894531 C 29.867188 33.035156 29.792969 33.207031 29.796875 33.410156 C 29.796875 33.605469 29.867188 33.773438 30.011719 33.914062 L 32.753906 36.757812 C 32.894531 36.894531 33.066406 36.964844 33.265625 36.964844 C 33.460938 36.964844 33.632812 36.894531 33.773438 36.757812 L 35.410156 35.121094 C 35.671875 34.863281 35.988281 34.738281 36.355469 34.757812 Z M 36.355469 34.757812 " fill-opacity="1" fill-rule="nonzero"/><path fill="#231f20" d="M 40.308594 31.671875 C 39.964844 31.671875 39.628906 31.636719 39.292969 31.570312 C 38.957031 31.503906 38.628906 31.40625 38.3125 31.273438 C 37.996094 31.144531 37.695312 30.984375 37.414062 30.792969 C 37.128906 30.601562 36.863281 30.386719 36.621094 30.144531 C 36.378906 29.902344 36.164062 29.640625 35.972656 29.355469 C 35.785156 29.070312 35.625 28.769531 35.492188 28.453125 C 35.363281 28.136719 35.261719 27.8125 35.195312 27.476562 C 35.128906 27.140625 35.097656 26.800781 35.097656 26.460938 C 35.097656 26.117188 35.128906 25.777344 35.195312 25.441406 C 35.261719 25.109375 35.363281 24.78125 35.492188 24.464844 C 35.625 24.148438 35.785156 23.847656 35.972656 23.5625 C 36.164062 23.28125 36.378906 23.015625 36.621094 22.773438 C 36.863281 22.53125 37.128906 22.316406 37.414062 22.125 C 37.695312 21.9375 37.996094 21.777344 38.3125 21.644531 C 38.628906 21.515625 38.957031 21.414062 39.292969 21.347656 C 39.628906 21.28125 39.964844 21.246094 40.308594 21.246094 C 40.652344 21.246094 40.988281 21.28125 41.324219 21.347656 C 41.660156 21.414062 41.988281 21.515625 42.300781 21.644531 C 42.617188 21.777344 42.917969 21.9375 43.203125 22.125 C 43.488281 22.316406 43.75 22.53125 43.992188 22.773438 C 44.234375 23.015625 44.453125 23.28125 44.640625 23.5625 C 44.832031 23.847656 44.992188 24.148438 45.125 24.464844 C 45.253906 24.78125 45.351562 25.109375 45.421875 25.441406 C 45.488281 25.777344 45.519531 26.117188 45.519531 26.460938 C 45.519531 26.800781 45.484375 27.140625 45.417969 27.476562 C 45.351562 27.8125 45.25 28.136719 45.121094 28.453125 C 44.988281 28.769531 44.828125 29.070312 44.636719 29.351562 C 44.449219 29.636719 44.230469 29.898438 43.988281 30.140625 C 43.75 30.382812 43.484375 30.597656 43.199219 30.789062 C 42.917969 30.980469 42.617188 31.140625 42.300781 31.273438 C 41.984375 31.402344 41.660156 31.503906 41.324219 31.570312 C 40.988281 31.636719 40.648438 31.671875 40.308594 31.671875 Z M 40.308594 23.765625 C 39.949219 23.765625 39.605469 23.835938 39.277344 23.972656 C 38.945312 24.109375 38.65625 24.300781 38.402344 24.554688 C 38.152344 24.808594 37.957031 25.097656 37.820312 25.429688 C 37.683594 25.757812 37.613281 26.101562 37.613281 26.460938 C 37.613281 26.816406 37.683594 27.160156 37.820312 27.492188 C 37.957031 27.820312 38.152344 28.113281 38.402344 28.363281 C 38.65625 28.617188 38.945312 28.8125 39.277344 28.949219 C 39.605469 29.085938 39.949219 29.152344 40.308594 29.152344 C 40.664062 29.152344 41.007812 29.085938 41.339844 28.949219 C 41.667969 28.8125 41.960938 28.617188 42.214844 28.363281 C 42.464844 28.113281 42.660156 27.820312 42.796875 27.492188 C 42.933594 27.160156 43.003906 26.816406 43.003906 26.460938 C 43.003906 26.101562 42.933594 25.757812 42.796875 25.429688 C 42.660156 25.097656 42.464844 24.808594 42.214844 24.554688 C 41.960938 24.300781 41.667969 24.109375 41.339844 23.972656 C 41.007812 23.835938 40.664062 23.765625 40.308594 23.765625 Z M 40.308594 23.765625 " fill-opacity="1" fill-rule="nonzero"/><g clip-path="url(#c4043615ad)"><path fill="#231f20" d="M 39.050781 73.039062 C 38.859375 73.042969 38.679688 73 38.507812 72.914062 L 28.4375 68.09375 L 20.617188 64.316406 C 20.402344 64.210938 20.230469 64.054688 20.101562 63.851562 C 19.972656 63.648438 19.910156 63.425781 19.910156 63.183594 C 19.910156 62.941406 19.972656 62.71875 20.101562 62.515625 C 20.230469 62.308594 20.402344 62.15625 20.617188 62.050781 L 28.425781 58.273438 L 28.5625 58.210938 L 38.53125 53.175781 C 38.714844 53.089844 38.90625 53.050781 39.105469 53.058594 C 39.304688 53.066406 39.492188 53.121094 39.667969 53.214844 C 39.84375 53.3125 39.988281 53.445312 40.101562 53.609375 C 40.214844 53.777344 40.28125 53.957031 40.308594 54.15625 L 40.308594 71.78125 C 40.308594 72.246094 40.113281 72.605469 39.714844 72.851562 C 39.511719 72.976562 39.289062 73.042969 39.050781 73.039062 Z M 23.941406 63.121094 L 29.367188 65.789062 L 37.789062 69.792969 L 37.789062 56.207031 L 29.582031 60.363281 L 29.429688 60.4375 Z M 23.941406 63.121094 " fill-opacity="1" fill-rule="nonzero"/></g><g clip-path="url(#16736e86c9)"><path fill="#231f20" d="M 69.261719 73.039062 L 39.050781 73.039062 C 38.882812 73.039062 38.722656 73.007812 38.566406 72.945312 C 38.414062 72.878906 38.277344 72.789062 38.160156 72.671875 C 38.039062 72.554688 37.949219 72.417969 37.886719 72.261719 C 37.820312 72.109375 37.789062 71.949219 37.789062 71.78125 L 37.789062 54.15625 C 37.789062 53.988281 37.824219 53.828125 37.886719 53.675781 C 37.949219 53.519531 38.039062 53.382812 38.160156 53.265625 C 38.277344 53.148438 38.414062 53.058594 38.566406 52.992188 C 38.722656 52.929688 38.882812 52.898438 39.050781 52.898438 L 69.261719 52.898438 C 69.765625 52.898438 70.246094 52.992188 70.707031 53.183594 C 71.171875 53.375 71.578125 53.648438 71.933594 54.003906 C 72.289062 54.359375 72.5625 54.765625 72.753906 55.230469 C 72.945312 55.691406 73.039062 56.171875 73.039062 56.675781 L 73.039062 69.261719 C 73.039062 69.765625 72.945312 70.246094 72.753906 70.707031 C 72.5625 71.171875 72.289062 71.578125 71.933594 71.933594 C 71.578125 72.289062 71.171875 72.5625 70.707031 72.753906 C 70.246094 72.945312 69.765625 73.039062 69.261719 73.039062 Z M 40.308594 70.523438 L 69.261719 70.523438 C 69.429688 70.523438 69.589844 70.492188 69.746094 70.425781 C 69.898438 70.363281 70.035156 70.273438 70.152344 70.152344 C 70.273438 70.035156 70.363281 69.898438 70.425781 69.746094 C 70.492188 69.589844 70.523438 69.429688 70.523438 69.261719 L 70.523438 56.675781 C 70.523438 56.507812 70.492188 56.347656 70.425781 56.191406 C 70.363281 56.039062 70.273438 55.902344 70.152344 55.785156 C 70.035156 55.664062 69.898438 55.574219 69.746094 55.511719 C 69.589844 55.445312 69.429688 55.414062 69.261719 55.414062 L 40.308594 55.414062 Z M 40.308594 70.523438 " fill-opacity="1" fill-rule="nonzero"/></g><g clip-path="url(#0f4207b270)"><path fill="#231f20" d="M 69.261719 73.039062 L 64.226562 73.039062 C 64.0625 73.039062 63.898438 73.007812 63.746094 72.945312 C 63.59375 72.878906 63.457031 72.789062 63.335938 72.671875 C 63.21875 72.554688 63.128906 72.417969 63.066406 72.261719 C 63 72.109375 62.96875 71.949219 62.96875 71.78125 L 62.96875 54.15625 C 62.96875 53.988281 63 53.828125 63.066406 53.675781 C 63.128906 53.519531 63.21875 53.382812 63.335938 53.265625 C 63.457031 53.148438 63.59375 53.058594 63.746094 52.992188 C 63.898438 52.929688 64.0625 52.898438 64.226562 52.898438 L 69.261719 52.898438 C 69.765625 52.898438 70.246094 52.992188 70.707031 53.183594 C 71.171875 53.375 71.578125 53.648438 71.933594 54.003906 C 72.289062 54.359375 72.5625 54.765625 72.753906 55.230469 C 72.945312 55.691406 73.039062 56.171875 73.039062 56.675781 L 73.039062 69.261719 C 73.039062 69.765625 72.945312 70.246094 72.753906 70.707031 C 72.5625 71.171875 72.289062 71.578125 71.933594 71.933594 C 71.578125 72.289062 71.171875 72.5625 70.707031 72.753906 C 70.246094 72.945312 69.765625 73.039062 69.261719 73.039062 Z M 65.488281 70.523438 L 69.261719 70.523438 C 69.429688 70.523438 69.589844 70.492188 69.746094 70.425781 C 69.898438 70.363281 70.035156 70.273438 70.152344 70.152344 C 70.273438 70.035156 70.363281 69.898438 70.425781 69.746094 C 70.492188 69.589844 70.523438 69.429688 70.523438 69.261719 L 70.523438 56.675781 C 70.523438 56.507812 70.492188 56.347656 70.425781 56.191406 C 70.363281 56.039062 70.273438 55.902344 70.152344 55.785156 C 70.035156 55.664062 69.898438 55.574219 69.746094 55.511719 C 69.589844 55.445312 69.429688 55.414062 69.261719 55.414062 L 65.488281 55.414062 Z M 65.488281 70.523438 " fill-opacity="1" fill-rule="nonzero"/></g><path fill="#231f20" d="M 64.226562 60.449219 L 39.050781 60.449219 C 38.882812 60.449219 38.722656 60.417969 38.566406 60.355469 C 38.414062 60.292969 38.277344 60.199219 38.160156 60.082031 C 38.039062 59.964844 37.949219 59.828125 37.886719 59.675781 C 37.820312 59.519531 37.789062 59.359375 37.789062 59.191406 L 37.789062 54.15625 C 37.789062 53.988281 37.824219 53.828125 37.886719 53.675781 C 37.949219 53.519531 38.039062 53.382812 38.160156 53.265625 C 38.277344 53.148438 38.414062 53.058594 38.566406 52.992188 C 38.722656 52.929688 38.882812 52.898438 39.050781 52.898438 L 64.226562 52.898438 C 64.394531 52.898438 64.554688 52.929688 64.710938 52.992188 C 64.863281 53.058594 65 53.148438 65.117188 53.265625 C 65.234375 53.382812 65.328125 53.519531 65.390625 53.675781 C 65.453125 53.828125 65.488281 53.988281 65.488281 54.15625 L 65.488281 59.191406 C 65.488281 59.359375 65.453125 59.519531 65.390625 59.675781 C 65.328125 59.828125 65.234375 59.964844 65.117188 60.082031 C 65 60.199219 64.863281 60.292969 64.710938 60.355469 C 64.554688 60.417969 64.394531 60.449219 64.226562 60.449219 Z M 40.308594 57.933594 L 62.96875 57.933594 L 62.96875 55.414062 L 40.308594 55.414062 Z M 40.308594 57.933594 " fill-opacity="1" fill-rule="nonzero"/><g clip-path="url(#bb27b85edf)"><path fill="#231f20" d="M 64.226562 73.039062 L 39.050781 73.039062 C 38.882812 73.039062 38.722656 73.007812 38.566406 72.945312 C 38.414062 72.878906 38.277344 72.789062 38.160156 72.671875 C 38.039062 72.554688 37.949219 72.417969 37.886719 72.261719 C 37.820312 72.109375 37.789062 71.949219 37.789062 71.78125 L 37.789062 66.746094 C 37.789062 66.578125 37.824219 66.417969 37.886719 66.265625 C 37.949219 66.109375 38.039062 65.972656 38.160156 65.855469 C 38.277344 65.738281 38.414062 65.644531 38.566406 65.582031 C 38.722656 65.519531 38.882812 65.488281 39.050781 65.488281 L 64.226562 65.488281 C 64.394531 65.488281 64.554688 65.519531 64.710938 65.582031 C 64.863281 65.644531 65 65.738281 65.117188 65.855469 C 65.234375 65.972656 65.328125 66.109375 65.390625 66.265625 C 65.453125 66.417969 65.488281 66.578125 65.488281 66.746094 L 65.488281 71.78125 C 65.488281 71.949219 65.453125 72.109375 65.390625 72.261719 C 65.328125 72.417969 65.234375 72.554688 65.117188 72.671875 C 65 72.789062 64.863281 72.878906 64.710938 72.945312 C 64.554688 73.007812 64.394531 73.039062 64.226562 73.039062 Z M 40.308594 70.523438 L 62.96875 70.523438 L 62.96875 68.003906 L 40.308594 68.003906 Z M 40.308594 70.523438 " fill-opacity="1" fill-rule="nonzero"/></g><path fill="#231f20" d="M 28.839844 68.179688 C 28.644531 68.183594 28.460938 68.140625 28.285156 68.054688 L 20.566406 64.277344 C 20.351562 64.171875 20.179688 64.019531 20.050781 63.8125 C 19.921875 63.609375 19.859375 63.386719 19.859375 63.144531 C 19.859375 62.902344 19.921875 62.679688 20.050781 62.476562 C 20.179688 62.273438 20.351562 62.117188 20.566406 62.011719 L 28.375 58.234375 L 28.511719 58.171875 C 28.78125 58.054688 29.0625 58.035156 29.347656 58.113281 C 29.632812 58.191406 29.863281 58.347656 30.035156 58.585938 C 30.996094 59.890625 31.484375 61.351562 31.496094 62.96875 C 31.496094 64.75 30.9375 66.332031 29.820312 67.714844 C 29.566406 68.027344 29.242188 68.183594 28.839844 68.179688 Z M 23.96875 63.144531 L 28.398438 65.324219 C 28.757812 64.636719 28.949219 63.902344 28.972656 63.128906 C 28.996094 62.351562 28.84375 61.609375 28.523438 60.902344 Z M 23.96875 63.144531 " fill-opacity="1" fill-rule="nonzero"/></svg>