<svg xmlns="http://www.w3.org/2000/svg" xmlns:xlink="http://www.w3.org/1999/xlink" width="100" zoomAndPan="magnify" viewBox="0 0 75 74.999997" height="100" preserveAspectRatio="xMidYMid meet" version="1.0"><defs><clipPath id="c74c70501c"><path d="M 0.703125 1.945312 L 22 1.945312 L 22 23 L 0.703125 23 Z M 0.703125 1.945312 " clip-rule="nonzero"/></clipPath><clipPath id="c4c91c14dc"><path d="M 0.703125 27 L 22 27 L 22 49 L 0.703125 49 Z M 0.703125 27 " clip-rule="nonzero"/></clipPath><clipPath id="5c3f111951"><path d="M 0.703125 52 L 22 52 L 22 73.195312 L 0.703125 73.195312 Z M 0.703125 52 " clip-rule="nonzero"/></clipPath><clipPath id="9f54034872"><path d="M 30 10 L 74.203125 10 L 74.203125 15 L 30 15 Z M 30 10 " clip-rule="nonzero"/></clipPath><clipPath id="e914edf523"><path d="M 30 35 L 74.203125 35 L 74.203125 40 L 30 40 Z M 30 35 " clip-rule="nonzero"/></clipPath><clipPath id="704637b13f"><path d="M 30 60 L 74.203125 60 L 74.203125 65 L 30 65 Z M 30 60 " clip-rule="nonzero"/></clipPath></defs><g clip-path="url(#c74c70501c)"><path fill="#000000" d="M 11.34375 22.898438 C 17.101562 22.898438 21.785156 18.199219 21.785156 12.421875 C 21.785156 6.644531 17.101562 1.945312 11.34375 1.945312 C 5.582031 1.945312 0.898438 6.644531 0.898438 12.421875 C 0.898438 18.199219 5.582031 22.898438 11.34375 22.898438 Z M 11.34375 6.136719 C 14.796875 6.136719 17.609375 8.953125 17.609375 12.421875 C 17.609375 15.890625 14.796875 18.707031 11.34375 18.707031 C 7.886719 18.707031 5.074219 15.890625 5.074219 12.421875 C 5.074219 8.953125 7.886719 6.136719 11.34375 6.136719 Z M 11.34375 6.136719 " fill-opacity="1" fill-rule="nonzero"/></g><g clip-path="url(#c4c91c14dc)"><path fill="#000000" d="M 11.34375 48.046875 C 17.101562 48.046875 21.785156 43.347656 21.785156 37.570312 C 21.785156 31.789062 17.101562 27.089844 11.34375 27.089844 C 5.582031 27.089844 0.898438 31.789062 0.898438 37.570312 C 0.898438 43.347656 5.582031 48.046875 11.34375 48.046875 Z M 11.34375 31.28125 C 14.796875 31.28125 17.609375 34.101562 17.609375 37.570312 C 17.609375 41.035156 14.796875 43.855469 11.34375 43.855469 C 7.886719 43.855469 5.074219 41.035156 5.074219 37.570312 C 5.074219 34.101562 7.886719 31.28125 11.34375 31.28125 Z M 11.34375 31.28125 " fill-opacity="1" fill-rule="nonzero"/></g><g clip-path="url(#5c3f111951)"><path fill="#000000" d="M 11.34375 73.195312 C 17.101562 73.195312 21.785156 68.492188 21.785156 62.714844 C 21.785156 56.9375 17.101562 52.238281 11.34375 52.238281 C 5.582031 52.238281 0.898438 56.9375 0.898438 62.714844 C 0.898438 68.492188 5.582031 73.195312 11.34375 73.195312 Z M 11.34375 56.429688 C 14.796875 56.429688 17.609375 59.25 17.609375 62.714844 C 17.609375 66.183594 14.796875 69.003906 11.34375 69.003906 C 7.886719 69.003906 5.074219 66.183594 5.074219 62.714844 C 5.074219 59.25 7.886719 56.429688 11.34375 56.429688 Z M 11.34375 56.429688 " fill-opacity="1" fill-rule="nonzero"/></g><g clip-path="url(#9f54034872)"><path fill="#000000" d="M 71.917969 10.328125 L 32.230469 10.328125 C 31.074219 10.328125 30.140625 11.265625 30.140625 12.421875 C 30.140625 13.578125 31.074219 14.515625 32.230469 14.515625 L 71.917969 14.515625 C 73.070312 14.515625 74.007812 13.578125 74.007812 12.421875 C 74.007812 11.265625 73.070312 10.328125 71.917969 10.328125 Z M 71.917969 10.328125 " fill-opacity="1" fill-rule="nonzero"/></g><g clip-path="url(#e914edf523)"><path fill="#000000" d="M 71.917969 35.472656 L 32.230469 35.472656 C 31.074219 35.472656 30.140625 36.410156 30.140625 37.570312 C 30.140625 38.726562 31.074219 39.664062 32.230469 39.664062 L 71.917969 39.664062 C 73.070312 39.664062 74.007812 38.726562 74.007812 37.570312 C 74.007812 36.410156 73.070312 35.472656 71.917969 35.472656 Z M 71.917969 35.472656 " fill-opacity="1" fill-rule="nonzero"/></g><g clip-path="url(#704637b13f)"><path fill="#000000" d="M 71.917969 60.621094 L 32.230469 60.621094 C 31.074219 60.621094 30.140625 61.558594 30.140625 62.714844 C 30.140625 63.875 31.074219 64.8125 32.230469 64.8125 L 71.917969 64.8125 C 73.070312 64.8125 74.007812 63.875 74.007812 62.714844 C 74.007812 61.558594 73.070312 60.621094 71.917969 60.621094 Z M 71.917969 60.621094 " fill-opacity="1" fill-rule="nonzero"/></g><path fill="#000000" d="M 11.34375 41.761719 C 13.644531 41.761719 15.519531 39.878906 15.519531 37.570312 C 15.519531 35.257812 13.644531 33.378906 11.34375 33.378906 C 9.039062 33.378906 7.164062 35.257812 7.164062 37.570312 C 7.164062 39.878906 9.039062 41.761719 11.34375 41.761719 Z M 11.34375 41.761719 " fill-opacity="1" fill-rule="nonzero"/></svg>