<svg xmlns="http://www.w3.org/2000/svg" xmlns:xlink="http://www.w3.org/1999/xlink" width="100" zoomAndPan="magnify" viewBox="0 0 75 74.999997" height="100" preserveAspectRatio="xMidYMid meet" version="1.2"><g id="7f99daaa7b"><rect x="0" width="75" y="0" height="74.999997" style="fill:#ffffff;fill-opacity:1;stroke:none;"/><rect x="0" width="75" y="0" height="74.999997" style="fill:#ffffff;fill-opacity:1;stroke:none;"/><path style=" stroke:none;fill-rule:nonzero;fill:#000000;fill-opacity:1;" d="M 37.5 0 C 16.789062 0 0 16.789062 0 37.5 C 0 58.210938 16.789062 75 37.5 75 C 58.210938 75 75 58.210938 75 37.5 C 75 16.789062 58.210938 0 37.5 0 Z M 37.5 69.230469 C 20.007812 69.230469 5.769531 54.996094 5.769531 37.5 C 5.769531 20.003906 20.007812 5.769531 37.5 5.769531 C 54.996094 5.769531 69.230469 20.003906 69.230469 37.5 C 69.230469 54.996094 54.996094 69.230469 37.5 69.230469 Z M 37.5 69.230469 "/><path style=" stroke:none;fill-rule:nonzero;fill:#000000;fill-opacity:1;" d="M 23.078125 23.078125 L 51.921875 23.078125 L 51.921875 51.921875 L 23.078125 51.921875 Z M 23.078125 23.078125 "/></g></svg>