<svg xmlns="http://www.w3.org/2000/svg" xmlns:xlink="http://www.w3.org/1999/xlink" width="100" zoomAndPan="magnify" viewBox="0 0 75 74.999997" height="100" preserveAspectRatio="xMidYMid meet" version="1.0"><defs><clipPath id="5e28d0deff"><path d="M 1.027344 11.46875 L 75 11.46875 L 75 63.96875 L 1.027344 63.96875 Z M 1.027344 11.46875 " clip-rule="nonzero"/></clipPath></defs><rect x="-7.5" width="90" fill="#ffffff" y="-7.5" height="89.999996" fill-opacity="1"/><rect x="-7.5" width="90" fill="#ffffff" y="-7.5" height="89.999996" fill-opacity="1"/><g clip-path="url(#5e28d0deff)"><path fill="#000000" d="M 74.179688 35.070312 C 71.902344 31.460938 67.109375 25.082031 59.628906 20.257812 L 63.753906 16.171875 C 64.78125 15.152344 64.78125 13.503906 63.753906 12.484375 C 62.726562 11.46875 61.058594 11.46875 60.03125 12.484375 L 12.554688 59.519531 C 11.527344 60.539062 11.527344 62.1875 12.554688 63.207031 C 13.070312 63.714844 13.742188 63.96875 14.414062 63.96875 C 15.089844 63.96875 15.761719 63.714844 16.277344 63.207031 L 21.429688 58.097656 C 26.148438 60.316406 31.703125 61.804688 38.152344 61.804688 C 58.640625 61.804688 70.199219 46.929688 74.179688 40.621094 C 75.25 38.925781 75.25 36.765625 74.179688 35.070312 Z M 38.152344 53.480469 C 34.746094 53.480469 31.601562 52.394531 29.027344 50.574219 L 34.761719 44.890625 C 35.789062 45.378906 36.9375 45.664062 38.152344 45.664062 C 42.511719 45.664062 46.046875 42.164062 46.046875 37.84375 C 46.046875 36.636719 45.761719 35.503906 45.265625 34.484375 L 51.003906 28.800781 C 52.84375 31.355469 53.9375 34.46875 53.9375 37.84375 C 53.9375 46.480469 46.871094 53.480469 38.152344 53.480469 Z M 22.933594 41.921875 C 22.578125 40.621094 22.371094 39.257812 22.371094 37.84375 C 22.371094 29.210938 29.4375 22.210938 38.152344 22.210938 C 39.582031 22.210938 40.957031 22.414062 42.269531 22.765625 L 49.542969 15.558594 C 46.101562 14.523438 42.324219 13.886719 38.152344 13.886719 C 17.664062 13.886719 6.109375 28.757812 2.128906 35.070312 C 1.058594 36.765625 1.058594 38.925781 2.128906 40.621094 C 3.941406 43.492188 7.339844 48.132812 12.417969 52.339844 Z M 22.933594 41.921875 " fill-opacity="1" fill-rule="nonzero"/></g></svg>