<!--?xml version="1.0" encoding="utf-8"?-->
<!-- Generator: Adobe Illustrator 18.1.1, SVG Export Plug-In . SVG Version: 6.00 Build 0)  -->

<svg version="1.1" id="_x32_" xmlns="http://www.w3.org/2000/svg" xmlns:xlink="http://www.w3.org/1999/xlink" x="0px" y="0px" viewBox="0 0 512 512" style="width: 256px; height: 256px; opacity: 1;" xml:space="preserve">
<style type="text/css">
	.st0{fill:#4B4B4B;}
</style>
<g>
	<polygon class="st0" points="0,145.151 115.998,196.299 115.998,167.663 0,109.479 	" style="fill: rgb(238, 236, 45);"></polygon>
	<polygon class="st0" points="0,402.521 115.998,344.337 115.998,315.701 0,366.849 	" style="fill: rgb(238, 236, 45);"></polygon>
	<path class="st0" d="M492.063,192.729H311.895c-10.394,0-20.596-2.705-29.618-7.84l-78.197-44.584v231.391l78.197-44.57
		c9.021-5.149,19.223-7.854,29.604-7.854h180.182c10.999,0,19.924-8.925,19.924-19.93L512,212.659
		C512,201.653,503.075,192.729,492.063,192.729z M387.442,269.181h-68.544v-26.363h68.544V269.181z" style="fill: rgb(238, 236, 45);"></path>
	<path class="st0" d="M165.36,129.649c-6.138,3.571-9.913,10.134-9.913,17.232l-0.014,218.237c0,7.099,3.776,13.676,9.914,17.232
		c6.138,3.57,13.717,3.597,19.882,0.082h0.014V129.567C179.077,126.052,171.498,126.079,165.36,129.649z" style="fill: rgb(238, 236, 45);"></path>
</g>
</svg>
