<svg xmlns="http://www.w3.org/2000/svg" xmlns:xlink="http://www.w3.org/1999/xlink" width="100" zoomAndPan="magnify" viewBox="0 0 75 74.999997" height="100" preserveAspectRatio="xMidYMid meet" version="1.0"><defs><clipPath id="bc05ad3483"><path d="M 2.820312 1.1875 L 72.570312 1.1875 L 72.570312 73.9375 L 2.820312 73.9375 Z M 2.820312 1.1875 " clip-rule="nonzero"/></clipPath></defs><g clip-path="url(#bc05ad3483)"><path fill="currentColor" d="M 59.972656 8.464844 L 56.582031 8.464844 L 56.582031 3.421875 C 56.582031 2.207031 55.589844 1.230469 54.382812 1.230469 C 53.164062 1.230469 52.179688 2.21875 52.179688 3.421875 L 52.179688 8.472656 L 21.945312 8.472656 L 21.945312 3.421875 C 21.945312 2.207031 20.957031 1.230469 19.746094 1.230469 C 18.527344 1.230469 17.546875 2.21875 17.546875 3.421875 L 17.546875 8.472656 L 15.410156 8.472656 C 8.457031 8.472656 2.820312 14.085938 2.820312 21.015625 L 2.820312 61.351562 C 2.820312 68.28125 8.457031 73.894531 15.410156 73.894531 L 59.972656 73.894531 C 66.925781 73.894531 72.5625 68.28125 72.5625 61.351562 L 72.5625 21.015625 C 72.570312 14.085938 66.925781 8.464844 59.972656 8.464844 Z M 52.171875 10.78125 L 52.171875 15.335938 C 52.171875 16.550781 53.164062 17.527344 54.371094 17.527344 C 55.589844 17.527344 56.570312 16.542969 56.570312 15.335938 L 56.570312 10.953125 C 57.980469 11.769531 58.933594 13.292969 58.933594 15.03125 C 58.933594 17.628906 56.816406 19.738281 54.207031 19.738281 C 51.597656 19.738281 49.480469 17.628906 49.480469 15.03125 C 49.5 13.15625 50.589844 11.542969 52.171875 10.78125 Z M 17.539062 10.863281 L 17.539062 15.335938 C 17.539062 16.550781 18.527344 17.527344 19.738281 17.527344 C 20.957031 17.527344 21.9375 16.542969 21.9375 15.335938 L 21.9375 10.863281 C 23.4375 11.652344 24.457031 13.21875 24.457031 15.019531 C 24.457031 17.621094 22.335938 19.730469 19.730469 19.730469 C 17.121094 19.730469 15.003906 17.621094 15.003906 15.019531 C 15.019531 13.21875 16.046875 11.652344 17.539062 10.863281 Z M 68.164062 61.34375 C 68.164062 65.84375 64.488281 69.492188 59.980469 69.492188 L 15.410156 69.492188 C 10.894531 69.492188 7.230469 65.835938 7.230469 61.34375 L 7.230469 27.933594 L 68.164062 27.933594 Z M 68.164062 61.34375 " fill-opacity="1" fill-rule="nonzero"/></g><path fill="currentColor" d="M 22.011719 40.582031 L 15.910156 40.582031 C 15.421875 40.582031 15.019531 40.183594 15.019531 39.695312 L 15.019531 33.617188 C 15.019531 33.128906 15.421875 32.730469 15.910156 32.730469 L 22.011719 32.730469 C 22.5 32.730469 22.902344 33.128906 22.902344 33.617188 L 22.902344 39.695312 C 22.890625 40.183594 22.5 40.582031 22.011719 40.582031 Z M 22.011719 40.582031 " fill-opacity="1" fill-rule="nonzero"/><path fill="currentColor" d="M 22.011719 53.039062 L 15.910156 53.039062 C 15.421875 53.039062 15.019531 52.640625 15.019531 52.152344 L 15.019531 46.078125 C 15.019531 45.589844 15.421875 45.191406 15.910156 45.191406 L 22.011719 45.191406 C 22.5 45.191406 22.902344 45.589844 22.902344 46.078125 L 22.902344 52.152344 C 22.890625 52.652344 22.5 53.039062 22.011719 53.039062 Z M 22.011719 53.039062 " fill-opacity="1" fill-rule="nonzero"/><path fill="currentColor" d="M 22.011719 65.507812 L 15.910156 65.507812 C 15.421875 65.507812 15.019531 65.109375 15.019531 64.621094 L 15.019531 58.546875 C 15.019531 58.058594 15.421875 57.660156 15.910156 57.660156 L 22.011719 57.660156 C 22.5 57.660156 22.902344 58.058594 22.902344 58.546875 L 22.902344 64.628906 C 22.890625 65.109375 22.5 65.507812 22.011719 65.507812 Z M 22.011719 65.507812 " fill-opacity="1" fill-rule="nonzero"/><path fill="currentColor" d="M 34.519531 40.582031 L 28.417969 40.582031 C 27.929688 40.582031 27.527344 40.183594 27.527344 39.695312 L 27.527344 33.617188 C 27.527344 33.128906 27.929688 32.730469 28.417969 32.730469 L 34.519531 32.730469 C 35.007812 32.730469 35.410156 33.128906 35.410156 33.617188 L 35.410156 39.695312 C 35.410156 40.183594 35.007812 40.582031 34.519531 40.582031 Z M 34.519531 40.582031 " fill-opacity="1" fill-rule="nonzero"/><path fill="currentColor" d="M 34.519531 53.039062 L 28.417969 53.039062 C 27.929688 53.039062 27.527344 52.640625 27.527344 52.152344 L 27.527344 46.078125 C 27.527344 45.589844 27.929688 45.191406 28.417969 45.191406 L 34.519531 45.191406 C 35.007812 45.191406 35.410156 45.589844 35.410156 46.078125 L 35.410156 52.152344 C 35.410156 52.652344 35.007812 53.039062 34.519531 53.039062 Z M 34.519531 53.039062 " fill-opacity="1" fill-rule="nonzero"/><path fill="currentColor" d="M 34.519531 65.507812 L 28.417969 65.507812 C 27.929688 65.507812 27.527344 65.109375 27.527344 64.621094 L 27.527344 58.546875 C 27.527344 58.058594 27.929688 57.660156 28.417969 57.660156 L 34.519531 57.660156 C 35.007812 57.660156 35.410156 58.058594 35.410156 58.546875 L 35.410156 64.628906 C 35.410156 65.109375 35.007812 65.507812 34.519531 65.507812 Z M 34.519531 65.507812 " fill-opacity="1" fill-rule="nonzero"/><path fill="currentColor" d="M 47.035156 40.582031 L 40.9375 40.582031 C 40.445312 40.582031 40.046875 40.183594 40.046875 39.695312 L 40.046875 33.617188 C 40.046875 33.128906 40.445312 32.730469 40.9375 32.730469 L 47.035156 32.730469 C 47.527344 32.730469 47.925781 33.128906 47.925781 33.617188 L 47.925781 39.695312 C 47.917969 40.183594 47.527344 40.582031 47.035156 40.582031 Z M 47.035156 40.582031 " fill-opacity="1" fill-rule="nonzero"/><path fill="currentColor" d="M 47.035156 53.039062 L 40.9375 53.039062 C 40.445312 53.039062 40.046875 52.640625 40.046875 52.152344 L 40.046875 46.078125 C 40.046875 45.589844 40.445312 45.191406 40.9375 45.191406 L 47.035156 45.191406 C 47.527344 45.191406 47.925781 45.589844 47.925781 46.078125 L 47.925781 52.152344 C 47.917969 52.652344 47.527344 53.039062 47.035156 53.039062 Z M 47.035156 53.039062 " fill-opacity="1" fill-rule="nonzero"/><path fill="currentColor" d="M 47.035156 65.507812 L 40.9375 65.507812 C 40.445312 65.507812 40.046875 65.109375 40.046875 64.621094 L 40.046875 58.546875 C 40.046875 58.058594 40.445312 57.660156 40.9375 57.660156 L 47.035156 57.660156 C 47.527344 57.660156 47.925781 58.058594 47.925781 58.546875 L 47.925781 64.628906 C 47.917969 65.109375 47.527344 65.507812 47.035156 65.507812 Z M 47.035156 65.507812 " fill-opacity="1" fill-rule="nonzero"/><path fill="currentColor" d="M 59.554688 40.582031 L 53.453125 40.582031 C 52.964844 40.582031 52.5625 40.183594 52.5625 39.695312 L 52.5625 33.617188 C 52.5625 33.128906 52.964844 32.730469 53.453125 32.730469 L 59.554688 32.730469 C 60.042969 32.730469 60.445312 33.128906 60.445312 33.617188 L 60.445312 39.695312 C 60.433594 40.183594 60.035156 40.582031 59.554688 40.582031 Z M 59.554688 40.582031 " fill-opacity="1" fill-rule="nonzero"/><path fill="currentColor" d="M 59.554688 53.039062 L 53.453125 53.039062 C 52.964844 53.039062 52.5625 52.640625 52.5625 52.152344 L 52.5625 46.078125 C 52.5625 45.589844 52.964844 45.191406 53.453125 45.191406 L 59.554688 45.191406 C 60.042969 45.191406 60.445312 45.589844 60.445312 46.078125 L 60.445312 52.152344 C 60.433594 52.652344 60.035156 53.039062 59.554688 53.039062 Z M 59.554688 53.039062 " fill-opacity="1" fill-rule="nonzero"/></svg>