<svg xmlns="http://www.w3.org/2000/svg" xmlns:xlink="http://www.w3.org/1999/xlink" width="100" zoomAndPan="magnify" viewBox="0 0 75 74.999997" height="100" preserveAspectRatio="xMidYMid meet" version="1.0"><defs><clipPath id="d69ce20519"><path d="M 15.660156 0 L 74.910156 0 L 74.910156 45.75 L 15.660156 45.75 Z M 15.660156 0 " clip-rule="nonzero"/></clipPath><clipPath id="da346e2fad"><path d="M 3 30 L 45.59375 30 L 45.59375 72 L 3 72 Z M 3 30 " clip-rule="nonzero"/></clipPath><clipPath id="8cad0a16f3"><path d="M 2.84375 29.605469 L 45.59375 29.605469 L 45.59375 72.355469 L 2.84375 72.355469 Z M 2.84375 29.605469 " clip-rule="nonzero"/></clipPath><clipPath id="86a30a19c3"><path d="M 0 29.605469 L 59.25 29.605469 L 59.25 75 L 0 75 Z M 0 29.605469 " clip-rule="nonzero"/></clipPath></defs><rect x="-7.5" width="90" fill="#ffffff" y="-7.5" height="89.999996" fill-opacity="1"/><rect x="-7.5" width="90" fill="#ffffff" y="-7.5" height="89.999996" fill-opacity="1"/><g clip-path="url(#d69ce20519)"><path fill="#000000" d="M 36.570312 45.742188 L 53.996094 45.742188 L 53.996094 24.632812 L 36.570312 24.632812 Z M 15.660156 45.742188 L 33.085938 45.742188 L 33.085938 0.0078125 L 15.660156 0.0078125 Z M 57.484375 45.742188 L 74.910156 45.742188 L 74.910156 24.632812 L 57.484375 24.632812 Z M 36.570312 0.0078125 L 36.570312 21.117188 L 74.910156 21.117188 L 74.910156 0.0078125 Z M 36.570312 0.0078125 " fill-opacity="1" fill-rule="nonzero"/></g><g clip-path="url(#da346e2fad)"><path fill="#ff0000" d="M 45.097656 51.355469 C 44.871094 51.730469 44.480469 51.953125 44.097656 52.167969 C 44.261719 52.402344 44.253906 52.714844 44.183594 52.988281 C 44.109375 53.265625 43.980469 53.523438 43.90625 53.796875 C 43.832031 54.074219 43.851562 54.4375 44.011719 54.671875 C 43.792969 54.683594 43.605469 54.859375 43.515625 55.0625 C 43.429688 55.261719 43.414062 55.488281 43.394531 55.707031 C 43.375 55.925781 43.347656 56.152344 43.230469 56.34375 L 43.238281 56.34375 C 43.550781 56.46875 43.882812 56.601562 44.105469 56.859375 C 44.167969 56.933594 44.226562 57.019531 44.257812 57.113281 C 44.335938 57.324219 44.304688 57.566406 44.21875 57.773438 C 44.128906 57.984375 43.992188 58.164062 43.855469 58.347656 C 44.035156 58.523438 44.324219 58.722656 44.40625 58.957031 C 44.457031 59.109375 44.460938 59.273438 44.484375 59.429688 C 44.5625 59.992188 44.859375 60.519531 44.839844 61.085938 C 44.839844 61.144531 44.796875 61.191406 44.746094 61.222656 C 44.695312 61.25 44.640625 61.269531 44.589844 61.292969 C 44.414062 61.382812 44.320312 61.585938 44.285156 61.777344 C 44.246094 61.972656 44.253906 62.175781 44.210938 62.367188 C 44.128906 62.761719 43.824219 63.085938 43.5625 63.390625 C 43.707031 63.570312 43.851562 63.753906 43.933594 63.96875 C 44.015625 64.179688 44.023438 64.433594 43.902344 64.628906 C 43.753906 64.867188 43.394531 64.980469 43.125 65.050781 C 43.324219 65.246094 43.535156 65.457031 43.574219 65.734375 C 43.601562 65.925781 43.542969 66.121094 43.570312 66.3125 C 43.589844 66.476562 43.675781 66.628906 43.78125 66.757812 C 43.890625 66.882812 44.019531 66.988281 44.148438 67.09375 C 43.914062 67.445312 43.9375 67.949219 44.046875 68.355469 C 44.160156 68.765625 44.351562 69.144531 44.460938 69.554688 C 44.597656 70.074219 44.589844 70.632812 44.4375 71.152344 C 43.734375 71.316406 42.921875 71.320312 42.242188 71.085938 C 41.929688 70.976562 41.628906 70.832031 41.304688 70.761719 C 40.980469 70.691406 40.589844 70.703125 40.328125 70.902344 C 40.207031 70.703125 40.019531 70.542969 39.804688 70.457031 C 39.554688 70.359375 39.277344 70.355469 39.011719 70.3125 C 38.746094 70.269531 38.453125 70.152344 38.300781 69.929688 C 38.238281 70.210938 38.105469 70.476562 37.921875 70.695312 C 37.855469 70.773438 37.773438 70.851562 37.671875 70.867188 C 37.597656 70.875 37.519531 70.851562 37.449219 70.820312 C 37.175781 70.714844 36.910156 70.550781 36.667969 70.382812 C 36.527344 70.378906 36.398438 70.46875 36.300781 70.570312 C 36.203125 70.671875 36.117188 70.792969 36 70.867188 C 35.691406 71.0625 35.277344 70.910156 34.941406 71.042969 C 34.664062 71.148438 34.429688 71.410156 34.277344 71.664062 C 34.179688 71.582031 34.050781 71.554688 33.925781 71.542969 C 33.796875 71.535156 33.671875 71.539062 33.546875 71.511719 C 33.359375 71.46875 33.199219 71.359375 33.015625 71.300781 C 32.761719 71.21875 32.480469 71.242188 32.222656 71.160156 C 31.933594 71.0625 31.707031 70.839844 31.492188 70.625 C 31.222656 70.824219 31.101562 70.867188 30.789062 70.992188 C 30.664062 71.042969 30.527344 71.085938 30.394531 71.054688 C 30.285156 71.027344 30.195312 70.953125 30.117188 70.871094 C 29.886719 70.640625 29.695312 70.34375 29.566406 70.039062 C 29.226562 70.214844 28.804688 70.085938 28.4375 70.203125 C 28.183594 70.28125 27.953125 70.5 27.867188 70.753906 C 27.679688 70.578125 27.386719 70.578125 27.144531 70.652344 C 26.898438 70.726562 26.679688 70.867188 26.4375 70.941406 C 26.105469 71.042969 25.742188 71.023438 25.425781 70.882812 L 25.425781 70.8125 C 25.308594 71.265625 24.980469 71.664062 24.558594 71.867188 C 24.441406 71.925781 24.308594 71.96875 24.179688 71.949219 C 24.066406 71.929688 23.96875 71.871094 23.878906 71.804688 C 23.550781 71.570312 23.269531 71.265625 23.058594 70.917969 C 22.683594 70.984375 22.300781 71.046875 21.953125 70.894531 C 21.773438 70.820312 21.621094 70.691406 21.4375 70.621094 C 21.152344 70.515625 20.808594 70.585938 20.585938 70.792969 C 20.539062 70.574219 20.351562 70.390625 20.148438 70.300781 C 19.945312 70.210938 19.71875 70.183594 19.496094 70.160156 C 19.273438 70.136719 19.046875 70.109375 18.84375 70.019531 C 18.808594 70.34375 18.679688 70.59375 18.460938 70.835938 C 18.371094 70.933594 18.261719 71.023438 18.132812 71.042969 C 18.050781 71.054688 17.960938 71.039062 17.882812 71.015625 C 17.582031 70.933594 17.300781 70.800781 17.050781 70.621094 C 16.644531 70.757812 16.402344 71.183594 15.984375 71.277344 C 15.785156 71.320312 15.578125 71.28125 15.378906 71.328125 C 15.222656 71.359375 15.085938 71.441406 14.933594 71.488281 C 14.664062 71.566406 14.359375 71.53125 14.121094 71.671875 C 13.992188 71.386719 13.683594 71.152344 13.382812 71.066406 C 13.207031 71.015625 13.019531 71.011719 12.835938 70.972656 C 12.492188 70.898438 12.117188 70.632812 11.90625 70.347656 C 11.75 70.492188 11.722656 70.519531 11.539062 70.625 C 11.355469 70.730469 11.140625 70.792969 10.933594 70.765625 C 10.742188 70.734375 10.570312 70.625 10.449219 70.480469 C 10.324219 70.332031 10.226562 70.085938 10.199219 69.894531 C 10.042969 70.148438 9.75 70.308594 9.449219 70.339844 C 9.246094 70.359375 9.035156 70.328125 8.835938 70.363281 C 8.550781 70.417969 8.253906 70.660156 8.136719 70.917969 C 7.886719 70.734375 7.550781 70.710938 7.242188 70.753906 C 6.746094 70.824219 6.285156 71.039062 5.800781 71.167969 C 5.246094 71.316406 4.46875 71.320312 4.027344 71.152344 C 3.875 70.636719 3.867188 70.074219 4.003906 69.554688 C 4.113281 69.148438 4.308594 68.765625 4.417969 68.355469 C 4.527344 67.949219 4.550781 67.445312 4.316406 67.097656 C 4.445312 66.992188 4.574219 66.886719 4.683594 66.757812 C 4.789062 66.628906 4.875 66.480469 4.894531 66.3125 C 4.921875 66.121094 4.859375 65.925781 4.890625 65.734375 C 4.929688 65.460938 5.140625 65.246094 5.339844 65.050781 C 5.070312 64.980469 4.710938 64.867188 4.5625 64.628906 C 4.441406 64.4375 4.449219 64.183594 4.53125 63.96875 C 4.613281 63.753906 4.757812 63.570312 4.902344 63.390625 C 4.640625 63.085938 4.335938 62.765625 4.253906 62.371094 C 4.210938 62.175781 4.21875 61.976562 4.179688 61.78125 C 4.144531 61.585938 4.050781 61.386719 3.875 61.296875 C 3.824219 61.269531 3.765625 61.253906 3.71875 61.222656 C 3.667969 61.195312 3.625 61.144531 3.625 61.085938 C 3.605469 60.519531 3.902344 59.992188 3.980469 59.433594 C 4.003906 59.273438 4.007812 59.109375 4.058594 58.960938 C 4.140625 58.722656 4.429688 58.523438 4.609375 58.347656 C 4.472656 58.167969 4.335938 57.984375 4.246094 57.773438 C 4.160156 57.566406 4.125 57.324219 4.207031 57.113281 C 4.238281 57.019531 4.296875 56.933594 4.359375 56.859375 C 4.582031 56.601562 4.914062 56.46875 5.226562 56.34375 L 5.234375 56.34375 C 5.117188 56.152344 5.089844 55.929688 5.070312 55.707031 C 5.050781 55.488281 5.035156 55.261719 4.949219 55.0625 C 4.859375 54.859375 4.675781 54.683594 4.453125 54.675781 C 4.613281 54.4375 4.632812 54.074219 4.558594 53.800781 C 4.484375 53.523438 4.355469 53.265625 4.28125 52.992188 C 4.210938 52.714844 4.203125 52.402344 4.367188 52.167969 C 3.984375 51.953125 3.59375 51.730469 3.367188 51.359375 C 3.28125 51.21875 3.222656 51.050781 3.25 50.886719 C 3.273438 50.765625 3.34375 50.65625 3.421875 50.554688 C 3.546875 50.394531 3.691406 50.246094 3.851562 50.121094 C 3.960938 50.035156 4.074219 49.957031 4.160156 49.847656 C 4.246094 49.742188 4.296875 49.59375 4.25 49.464844 C 4.226562 49.246094 4.234375 48.988281 4.300781 48.78125 C 4.378906 48.546875 4.550781 48.351562 4.621094 48.117188 C 4.699219 47.847656 4.636719 47.53125 4.453125 47.320312 C 4.582031 47.269531 4.714844 47.210938 4.808594 47.105469 C 4.890625 47.011719 4.933594 46.886719 4.964844 46.765625 C 5.054688 46.425781 5.085938 46.070312 5.117188 45.722656 C 5.121094 45.6875 5.121094 45.648438 5.101562 45.621094 C 5.085938 45.589844 4.972656 45.5625 4.949219 45.589844 C 4.5625 45.496094 4.246094 45.15625 4.175781 44.765625 C 4.101562 44.371094 4.285156 43.945312 4.617188 43.722656 C 4.328125 43.539062 4.125 43.222656 4.019531 42.894531 C 3.917969 42.570312 3.882812 42.226562 3.832031 41.886719 C 3.777344 41.546875 3.703125 41.207031 3.527344 40.914062 C 3.804688 40.707031 4.097656 40.507812 4.191406 40.1875 C 4.257812 39.957031 4.242188 39.707031 4.296875 39.472656 C 4.375 39.148438 4.585938 38.859375 4.875 38.691406 C 4.734375 38.511719 4.59375 38.277344 4.523438 38.058594 C 4.453125 37.84375 4.449219 37.59375 4.570312 37.398438 C 4.71875 37.148438 5.050781 37.019531 5.332031 36.953125 L 5.34375 36.953125 C 5.203125 36.847656 5.210938 36.855469 5.109375 36.714844 C 4.984375 36.542969 4.933594 36.328125 4.902344 36.117188 C 4.867188 35.90625 4.855469 35.695312 4.796875 35.488281 C 4.800781 35.34375 4.722656 35.171875 4.601562 35.09375 C 4.519531 35.039062 4.414062 35.007812 4.375 34.917969 C 4.351562 34.863281 4.363281 34.796875 4.394531 34.742188 C 4.425781 34.691406 4.484375 34.644531 4.539062 34.613281 C 4.519531 34.03125 4.285156 33.480469 4.132812 32.914062 C 3.949219 32.222656 3.890625 31.5 3.96875 30.789062 C 4.40625 30.621094 5.25 30.660156 5.804688 30.808594 C 6.289062 30.9375 6.75 31.15625 7.246094 31.222656 C 7.550781 31.265625 7.886719 31.242188 8.136719 31.058594 C 8.257812 31.320312 8.554688 31.5625 8.839844 31.613281 C 9.039062 31.652344 9.25 31.617188 9.453125 31.640625 C 9.753906 31.671875 10.046875 31.828125 10.203125 32.082031 C 10.230469 31.890625 10.328125 31.648438 10.453125 31.5 C 10.574219 31.351562 10.746094 31.242188 10.9375 31.214844 C 11.148438 31.183594 11.359375 31.246094 11.542969 31.351562 C 11.726562 31.457031 11.753906 31.484375 11.910156 31.628906 C 12.121094 31.34375 12.496094 31.078125 12.839844 31.003906 C 13.023438 30.96875 13.210938 30.964844 13.386719 30.914062 C 13.691406 30.824219 13.996094 30.59375 14.125 30.304688 C 14.363281 30.449219 14.667969 30.410156 14.9375 30.492188 C 15.089844 30.535156 15.226562 30.617188 15.382812 30.652344 C 15.582031 30.695312 15.789062 30.65625 15.988281 30.699219 C 16.40625 30.792969 16.648438 31.21875 17.054688 31.359375 C 17.304688 31.175781 17.585938 31.042969 17.882812 30.960938 C 17.96875 30.941406 18.050781 30.921875 18.136719 30.933594 C 18.265625 30.953125 18.375 31.046875 18.460938 31.144531 C 18.679688 31.386719 18.8125 31.632812 18.847656 31.960938 C 19.050781 31.867188 19.277344 31.839844 19.5 31.816406 C 19.722656 31.792969 19.949219 31.769531 20.152344 31.675781 C 20.355469 31.585938 20.542969 31.402344 20.589844 31.1875 C 20.8125 31.390625 21.15625 31.460938 21.441406 31.355469 C 21.625 31.289062 21.777344 31.160156 21.957031 31.082031 C 22.304688 30.929688 22.6875 30.996094 23.0625 31.058594 C 23.273438 30.710938 23.554688 30.40625 23.882812 30.171875 C 23.972656 30.105469 24.070312 30.046875 24.179688 30.027344 C 24.3125 30.007812 24.445312 30.050781 24.5625 30.109375 C 24.984375 30.3125 25.308594 30.710938 25.429688 31.164062 L 25.429688 31.097656 C 25.746094 30.957031 26.109375 30.933594 26.441406 31.035156 C 26.683594 31.109375 26.902344 31.25 27.148438 31.324219 C 27.390625 31.402344 27.683594 31.398438 27.871094 31.222656 C 27.957031 31.476562 28.183594 31.695312 28.441406 31.777344 C 28.808594 31.890625 29.230469 31.761719 29.570312 31.9375 C 29.699219 31.632812 29.886719 31.335938 30.121094 31.105469 C 30.199219 31.023438 30.289062 30.949219 30.398438 30.921875 C 30.53125 30.890625 30.667969 30.933594 30.792969 30.984375 C 31.101562 31.109375 31.226562 31.152344 31.496094 31.355469 C 31.710938 31.136719 31.9375 30.914062 32.226562 30.820312 C 32.484375 30.734375 32.765625 30.757812 33.019531 30.675781 C 33.203125 30.617188 33.363281 30.507812 33.550781 30.46875 C 33.675781 30.441406 33.800781 30.445312 33.929688 30.433594 C 34.054688 30.421875 34.183594 30.394531 34.28125 30.3125 C 34.433594 30.566406 34.664062 30.828125 34.945312 30.9375 C 35.28125 31.066406 35.699219 30.914062 36.003906 31.109375 C 36.125 31.183594 36.207031 31.304688 36.304688 31.40625 C 36.402344 31.507812 36.53125 31.601562 36.671875 31.59375 C 36.910156 31.425781 37.179688 31.261719 37.453125 31.15625 C 37.523438 31.128906 37.597656 31.101562 37.675781 31.113281 C 37.777344 31.125 37.859375 31.203125 37.925781 31.28125 C 38.109375 31.5 38.242188 31.765625 38.304688 32.046875 C 38.457031 31.824219 38.75 31.707031 39.015625 31.667969 C 39.28125 31.625 39.558594 31.621094 39.808594 31.519531 C 40.023438 31.433594 40.210938 31.273438 40.328125 31.078125 C 40.59375 31.277344 40.984375 31.289062 41.308594 31.21875 C 41.632812 31.148438 41.933594 31 42.246094 30.890625 C 42.925781 30.660156 43.800781 30.621094 44.503906 30.789062 C 44.582031 31.5 44.523438 32.222656 44.339844 32.914062 C 44.1875 33.480469 43.949219 34.027344 43.933594 34.613281 C 43.988281 34.640625 44.042969 34.6875 44.078125 34.742188 C 44.109375 34.796875 44.121094 34.863281 44.097656 34.917969 C 44.058594 35.007812 43.953125 35.039062 43.871094 35.089844 C 43.75 35.171875 43.671875 35.34375 43.675781 35.488281 C 43.617188 35.691406 43.605469 35.90625 43.570312 36.117188 C 43.539062 36.328125 43.484375 36.539062 43.363281 36.714844 C 43.261719 36.855469 43.265625 36.847656 43.125 36.953125 L 43.136719 36.953125 C 43.421875 37.019531 43.753906 37.148438 43.902344 37.394531 C 44.019531 37.59375 44.019531 37.839844 43.949219 38.058594 C 43.878906 38.277344 43.738281 38.507812 43.597656 38.6875 C 43.882812 38.855469 44.097656 39.148438 44.175781 39.472656 C 44.226562 39.707031 44.214844 39.953125 44.28125 40.1875 C 44.375 40.503906 44.667969 40.707031 44.945312 40.914062 C 44.765625 41.207031 44.691406 41.546875 44.640625 41.886719 C 44.589844 42.222656 44.554688 42.570312 44.453125 42.894531 C 44.347656 43.222656 44.144531 43.539062 43.855469 43.722656 C 44.1875 43.945312 44.367188 44.371094 44.296875 44.761719 C 44.226562 45.15625 43.910156 45.496094 43.519531 45.585938 C 43.5 45.558594 43.386719 45.589844 43.367188 45.621094 C 43.351562 45.648438 43.351562 45.6875 43.355469 45.722656 C 43.386719 46.070312 43.417969 46.425781 43.507812 46.765625 C 43.539062 46.886719 43.582031 47.007812 43.664062 47.105469 C 43.753906 47.210938 43.890625 47.265625 44.019531 47.320312 C 43.832031 47.53125 43.773438 47.847656 43.851562 48.117188 C 43.921875 48.351562 44.09375 48.546875 44.171875 48.777344 C 44.238281 48.984375 44.246094 49.246094 44.222656 49.464844 C 44.175781 49.59375 44.226562 49.738281 44.3125 49.847656 C 44.394531 49.953125 44.511719 50.03125 44.621094 50.121094 C 44.777344 50.246094 44.925781 50.394531 45.050781 50.554688 C 45.125 50.65625 45.199219 50.761719 45.21875 50.886719 C 45.242188 51.046875 45.183594 51.214844 45.097656 51.355469 Z M 45.097656 51.355469 " fill-opacity="1" fill-rule="nonzero"/></g><g clip-path="url(#8cad0a16f3)"><path fill="#ffffff" d="M 2.84375 29.605469 L 45.617188 29.605469 L 45.617188 72.378906 L 2.84375 72.378906 Z M 2.84375 29.605469 " fill-opacity="1" fill-rule="nonzero"/></g><g clip-path="url(#86a30a19c3)"><path fill="#000000" d="M 20.910156 75.347656 L 38.339844 75.347656 L 38.339844 54.238281 L 20.910156 54.238281 Z M 0 75.347656 L 17.425781 75.347656 L 17.425781 29.613281 L 0 29.613281 Z M 41.824219 75.347656 L 59.25 75.347656 L 59.25 54.238281 L 41.824219 54.238281 Z M 20.910156 29.613281 L 20.910156 50.71875 L 59.25 50.71875 L 59.25 29.613281 Z M 20.910156 29.613281 " fill-opacity="1" fill-rule="nonzero"/></g></svg>