<svg xmlns="http://www.w3.org/2000/svg" xmlns:xlink="http://www.w3.org/1999/xlink" width="100" zoomAndPan="magnify" viewBox="0 0 75 74.999997" height="100" preserveAspectRatio="xMidYMid meet" version="1.0"><defs><clipPath id="de479eaf44"><path d="M 0 23.453125 L 75 23.453125 L 75 50 L 0 50 Z M 0 23.453125 " clip-rule="nonzero"/></clipPath></defs><path fill="#000000" d="M 2.304688 48.890625 C 2.304688 51.179688 6.976562 50.917969 8.421875 50.875 C 10.140625 50.820312 11.828125 50.664062 13.558594 50.382812 C 13.558594 48.652344 13.558594 46.808594 13.558594 44.953125 C 11.828125 45.035156 9.914062 45.21875 8.125 45.558594 C 6.480469 45.871094 2.300781 46.5625 2.304688 48.890625 Z M 2.304688 48.890625 " fill-opacity="1" fill-rule="nonzero"/><g clip-path="url(#de479eaf44)"><path fill="#000000" d="M 8.984375 44.003906 C 10.582031 43.777344 12.195312 43.636719 13.8125 43.5625 C 14.054688 43.390625 14.433594 43.378906 14.699219 43.523438 C 16.574219 43.46875 18.457031 43.503906 20.328125 43.617188 C 23.21875 43.792969 26.117188 44.097656 28.886719 44.945312 C 31.050781 45.605469 33.28125 46.074219 35.496094 46.527344 C 42.808594 48.023438 50.242188 49.152344 57.699219 49.613281 C 61.25 49.832031 64.851562 49.9375 68.398438 49.554688 C 70.542969 49.328125 73.101562 48.984375 74.949219 47.722656 C 72.945312 44.550781 70.285156 41.542969 67.183594 39.429688 C 66.777344 39.15625 66.742188 38.699219 67.039062 38.332031 C 68.066406 37.0625 69.078125 35.773438 70.074219 34.480469 C 71.785156 32.253906 73.714844 29.976562 75.003906 27.46875 C 74.945312 27.480469 74.886719 27.492188 74.828125 27.503906 C 73.324219 27.847656 71.84375 28.269531 70.339844 28.601562 C 65.347656 29.691406 60.195312 30.125 55.117188 29.378906 C 51.777344 28.890625 48.480469 28.046875 45.179688 27.347656 C 37.113281 25.636719 28.9375 24.050781 20.679688 23.667969 C 16.855469 23.496094 12.9375 23.519531 9.175781 24.324219 C 6.253906 24.949219 3.34375 26.035156 1.257812 28.226562 C 0.660156 30.335938 0.378906 32.574219 0.246094 34.75 C -0.00390625 38.890625 0.375 43.03125 1.578125 46.992188 C 3.207031 44.917969 6.535156 44.355469 8.984375 44.003906 Z M 8.984375 44.003906 " fill-opacity="1" fill-rule="nonzero"/></g></svg>