<svg xmlns="http://www.w3.org/2000/svg" xmlns:xlink="http://www.w3.org/1999/xlink" width="100" zoomAndPan="magnify" viewBox="0 0 75 74.999997" height="100" preserveAspectRatio="xMidYMid meet" version="1.0"><defs><clipPath id="45b644a938"><path d="M 7 30 L 73.359375 30 L 73.359375 49.679688 L 7 49.679688 Z M 7 30 " clip-rule="nonzero"/></clipPath><clipPath id="3b4a4130a5"><path d="M 2.859375 25.679688 L 25 25.679688 L 25 35 L 2.859375 35 Z M 2.859375 25.679688 " clip-rule="nonzero"/></clipPath></defs><rect x="-7.5" width="90" fill="#ffffff" y="-7.5" height="89.999996" fill-opacity="1"/><rect x="-7.5" width="90" fill="#ffffff" y="-7.5" height="89.999996" fill-opacity="1"/><rect x="-7.5" width="90" fill="#ffffff" y="-7.5" height="89.999996" fill-opacity="1"/><g clip-path="url(#45b644a938)"><path fill="#040606" d="M 71.597656 49.675781 L 9.191406 49.675781 C 8.222656 49.675781 7.429688 48.886719 7.429688 47.917969 L 7.429688 32.339844 C 7.429688 31.375 8.222656 30.582031 9.191406 30.582031 L 71.597656 30.582031 C 72.566406 30.582031 73.359375 31.375 73.359375 32.339844 L 73.359375 47.914062 C 73.359375 48.886719 72.566406 49.675781 71.597656 49.675781 Z M 71.597656 49.675781 " fill-opacity="1" fill-rule="nonzero"/></g><path fill="#ffffff" d="M 68.851562 46.578125 L 6.441406 46.578125 C 5.472656 46.578125 4.679688 45.785156 4.679688 44.820312 L 4.679688 29.246094 C 4.679688 28.277344 5.472656 27.484375 6.441406 27.484375 L 68.847656 27.484375 C 69.816406 27.484375 70.609375 28.277344 70.609375 29.246094 L 70.609375 44.820312 C 70.613281 45.785156 69.820312 46.578125 68.851562 46.578125 Z M 68.851562 46.578125 " fill-opacity="1" fill-rule="nonzero"/><path fill="#000000" d="M 68.71875 46.957031 L 6.574219 46.957031 C 5.320312 46.957031 4.300781 45.9375 4.300781 44.6875 L 4.300781 29.378906 C 4.300781 28.125 5.324219 27.109375 6.574219 27.109375 L 68.71875 27.109375 C 69.972656 27.109375 70.992188 28.128906 70.992188 29.378906 L 70.992188 44.6875 C 70.992188 45.9375 69.972656 46.957031 68.71875 46.957031 Z M 6.574219 27.863281 C 5.742188 27.863281 5.058594 28.542969 5.058594 29.375 L 5.058594 44.683594 C 5.058594 45.519531 5.742188 46.199219 6.574219 46.199219 L 68.71875 46.199219 C 69.554688 46.199219 70.234375 45.519531 70.234375 44.683594 L 70.234375 29.378906 C 70.234375 28.546875 69.554688 27.867188 68.71875 27.867188 L 6.574219 27.867188 Z M 6.574219 27.863281 " fill-opacity="1" fill-rule="nonzero"/><g clip-path="url(#3b4a4130a5)"><path fill="#000000" d="M 3.242188 34.15625 C 3.035156 34.15625 2.859375 33.988281 2.859375 33.777344 L 2.859375 27.949219 C 2.859375 26.699219 3.882812 25.679688 5.132812 25.679688 L 24.488281 25.679688 C 24.699219 25.679688 24.871094 25.851562 24.871094 26.0625 C 24.871094 26.269531 24.703125 26.441406 24.488281 26.441406 L 5.132812 26.441406 C 4.300781 26.441406 3.617188 27.121094 3.617188 27.953125 L 3.617188 33.78125 C 3.617188 33.988281 3.449219 34.15625 3.242188 34.15625 Z M 3.242188 34.15625 " fill-opacity="1" fill-rule="nonzero"/></g></svg>