<svg xmlns="http://www.w3.org/2000/svg" xmlns:xlink="http://www.w3.org/1999/xlink" width="100" zoomAndPan="magnify" viewBox="0 0 75 74.999997" height="100" preserveAspectRatio="xMidYMid meet" version="1.0"><defs><clipPath id="df5b9f68ac"><path d="M 0 7.5 L 74.25 7.5 L 74.25 35 L 0 35 Z M 0 7.5 " clip-rule="nonzero"/></clipPath><clipPath id="6c3cb7c354"><path d="M 24 7.5 L 27 7.5 L 27 15 L 24 15 Z M 24 7.5 " clip-rule="nonzero"/></clipPath><clipPath id="f28ea321d5"><path d="M 0 38 L 74.25 38 L 74.25 66 L 0 66 Z M 0 38 " clip-rule="nonzero"/></clipPath></defs><g clip-path="url(#df5b9f68ac)"><path fill="#000000" d="M 60.640625 34.839844 L 13.597656 34.839844 C 6.097656 34.839844 -0.0078125 28.714844 -0.0078125 21.1875 C -0.0078125 13.660156 6.097656 7.53125 13.597656 7.53125 L 60.640625 7.53125 C 68.140625 7.53125 74.242188 13.660156 74.242188 21.1875 C 74.242188 28.714844 68.140625 34.839844 60.640625 34.839844 Z M 13.597656 9.222656 C 7.023438 9.222656 1.671875 14.589844 1.671875 21.1875 C 1.671875 27.789062 7.023438 33.15625 13.597656 33.15625 L 60.640625 33.15625 C 67.214844 33.15625 72.5625 27.789062 72.5625 21.1875 C 72.5625 14.589844 67.214844 9.222656 60.640625 9.222656 Z M 13.597656 9.222656 " fill-opacity="1" fill-rule="nonzero"/></g><g clip-path="url(#6c3cb7c354)"><path fill="#000000" d="M 25.824219 14.980469 C 25.359375 14.980469 24.984375 14.601562 24.984375 14.136719 L 24.984375 8.378906 C 24.984375 7.914062 25.359375 7.535156 25.824219 7.535156 C 26.289062 7.535156 26.664062 7.914062 26.664062 8.378906 L 26.664062 14.136719 C 26.664062 14.601562 26.289062 14.980469 25.824219 14.980469 Z M 25.824219 14.980469 " fill-opacity="1" fill-rule="nonzero"/></g><path fill="#000000" d="M 48.410156 34.839844 C 47.949219 34.839844 47.570312 34.464844 47.570312 34 L 47.570312 29.5625 C 47.570312 29.097656 47.949219 28.722656 48.410156 28.722656 C 48.875 28.722656 49.25 29.097656 49.25 29.5625 L 49.25 34 C 49.25 34.464844 48.875 34.839844 48.410156 34.839844 Z M 48.410156 34.839844 " fill-opacity="1" fill-rule="nonzero"/><path fill="#000000" d="M 61.058594 30.273438 C 55.84375 30.273438 51.597656 26.015625 51.597656 20.777344 C 51.597656 15.542969 55.84375 11.285156 61.058594 11.285156 C 66.277344 11.285156 70.519531 15.542969 70.519531 20.777344 C 70.519531 26.015625 66.277344 30.273438 61.058594 30.273438 Z M 61.058594 12.96875 C 56.769531 12.96875 53.277344 16.472656 53.277344 20.777344 C 53.277344 25.082031 56.769531 28.585938 61.058594 28.585938 C 65.351562 28.585938 68.839844 25.082031 68.839844 20.777344 C 68.839844 16.472656 65.347656 12.96875 61.058594 12.96875 Z M 61.058594 12.96875 " fill-opacity="1" fill-rule="nonzero"/><path fill="#000000" d="M 57.453125 25.242188 C 57.238281 25.242188 57.019531 25.160156 56.855469 24.996094 C 56.527344 24.667969 56.527344 24.132812 56.855469 23.804688 L 64.074219 16.558594 C 64.402344 16.230469 64.933594 16.230469 65.261719 16.558594 C 65.589844 16.890625 65.589844 17.425781 65.261719 17.753906 L 58.042969 24.996094 C 57.882812 25.160156 57.667969 25.242188 57.453125 25.242188 Z M 57.453125 25.242188 " fill-opacity="1" fill-rule="nonzero"/><path fill="#000000" d="M 64.667969 25.242188 C 64.453125 25.242188 64.238281 25.160156 64.074219 24.996094 L 56.855469 17.753906 C 56.527344 17.425781 56.527344 16.890625 56.855469 16.558594 C 57.183594 16.230469 57.714844 16.230469 58.042969 16.558594 L 65.261719 23.804688 C 65.589844 24.132812 65.589844 24.667969 65.261719 24.996094 C 65.097656 25.160156 64.882812 25.242188 64.667969 25.242188 Z M 64.667969 25.242188 " fill-opacity="1" fill-rule="nonzero"/><path fill="#000000" d="M 52.4375 21.621094 L 15.753906 21.621094 C 15.289062 21.621094 14.914062 21.242188 14.914062 20.777344 C 14.914062 20.3125 15.289062 19.933594 15.753906 19.933594 L 52.4375 19.933594 C 52.902344 19.933594 53.277344 20.3125 53.277344 20.777344 C 53.277344 21.242188 52.902344 21.621094 52.4375 21.621094 Z M 52.4375 21.621094 " fill-opacity="1" fill-rule="nonzero"/><g clip-path="url(#f28ea321d5)"><path fill="#000000" d="M 60.640625 65.960938 L 13.597656 65.960938 C 6.097656 65.960938 -0.0078125 59.835938 -0.0078125 52.308594 C -0.0078125 44.777344 6.097656 38.652344 13.597656 38.652344 L 60.640625 38.652344 C 68.140625 38.652344 74.242188 44.777344 74.242188 52.308594 C 74.242188 59.835938 68.140625 65.960938 60.640625 65.960938 Z M 13.597656 40.339844 C 7.023438 40.339844 1.671875 45.710938 1.671875 52.308594 C 1.671875 58.910156 7.023438 64.277344 13.597656 64.277344 L 60.640625 64.277344 C 67.214844 64.277344 72.5625 58.910156 72.5625 52.308594 C 72.5625 45.710938 67.214844 40.339844 60.640625 40.339844 Z M 13.597656 40.339844 " fill-opacity="1" fill-rule="nonzero"/></g><path fill="#000000" d="M 48.410156 46.101562 C 47.949219 46.101562 47.570312 45.722656 47.570312 45.257812 L 47.570312 39.496094 C 47.570312 39.03125 47.949219 38.652344 48.410156 38.652344 C 48.875 38.652344 49.25 39.03125 49.25 39.496094 L 49.25 45.257812 C 49.25 45.726562 48.875 46.101562 48.410156 46.101562 Z M 48.410156 46.101562 " fill-opacity="1" fill-rule="nonzero"/><path fill="#000000" d="M 25.824219 65.960938 C 25.359375 65.960938 24.984375 65.585938 24.984375 65.117188 L 24.984375 60.683594 C 24.984375 60.21875 25.359375 59.839844 25.824219 59.839844 C 26.289062 59.839844 26.664062 60.21875 26.664062 60.683594 L 26.664062 65.117188 C 26.664062 65.585938 26.289062 65.960938 25.824219 65.960938 Z M 25.824219 65.960938 " fill-opacity="1" fill-rule="nonzero"/><path fill="#000000" d="M 13.175781 61.394531 C 7.960938 61.394531 3.71875 57.136719 3.71875 51.898438 C 3.71875 46.664062 7.960938 42.40625 13.175781 42.40625 C 18.394531 42.40625 22.636719 46.664062 22.636719 51.898438 C 22.636719 57.136719 18.394531 61.394531 13.175781 61.394531 Z M 13.175781 44.089844 C 8.886719 44.089844 5.398438 47.59375 5.398438 51.898438 C 5.398438 56.203125 8.886719 59.707031 13.175781 59.707031 C 17.464844 59.707031 20.957031 56.203125 20.957031 51.898438 C 20.957031 47.59375 17.46875 44.089844 13.175781 44.089844 Z M 13.175781 44.089844 " fill-opacity="1" fill-rule="nonzero"/><path fill="#000000" d="M 58.484375 52.742188 L 21.796875 52.742188 C 21.335938 52.742188 20.957031 52.363281 20.957031 51.898438 C 20.957031 51.433594 21.335938 51.054688 21.796875 51.054688 L 58.484375 51.054688 C 58.949219 51.054688 59.324219 51.433594 59.324219 51.898438 C 59.324219 52.363281 58.949219 52.742188 58.484375 52.742188 Z M 58.484375 52.742188 " fill-opacity="1" fill-rule="nonzero"/><path fill="#000000" d="M 9.878906 54.945312 C 9.808594 54.945312 9.734375 54.933594 9.664062 54.917969 C 9.449219 54.859375 9.265625 54.71875 9.152344 54.523438 L 8.148438 52.777344 C 7.914062 52.375 8.054688 51.859375 8.453125 51.625 C 8.855469 51.390625 9.371094 51.53125 9.601562 51.933594 L 10.1875 52.949219 L 17.0625 48.96875 C 17.460938 48.734375 17.976562 48.875 18.207031 49.277344 C 18.441406 49.679688 18.300781 50.195312 17.902344 50.425781 L 10.300781 54.832031 C 10.167969 54.90625 10.027344 54.945312 9.878906 54.945312 Z M 9.878906 54.945312 " fill-opacity="1" fill-rule="nonzero"/></svg>