<svg xmlns="http://www.w3.org/2000/svg" xmlns:xlink="http://www.w3.org/1999/xlink" width="100" zoomAndPan="magnify" viewBox="0 0 75 74.999997" height="100" preserveAspectRatio="xMidYMid meet" version="1.0"><defs><filter x="0%" y="0%" width="100%" height="100%" id="3b688093ec"><feColorMatrix values="0 0 0 0 1 0 0 0 0 1 0 0 0 0 1 0 0 0 1 0" color-interpolation-filters="sRGB"/></filter><clipPath id="8ef4f07dc2"><path d="M 4 19 L 74.753906 19 L 74.753906 61.183594 L 4 61.183594 Z M 4 19 " clip-rule="nonzero"/></clipPath><clipPath id="fab623f34a"><path d="M 2.003906 15.433594 L 24 15.433594 L 24 37 L 2.003906 37 Z M 2.003906 15.433594 " clip-rule="nonzero"/></clipPath><mask id="82e3f61eb5"><g filter="url(#3b688093ec)"><rect x="-7.5" width="90" fill="#000000" y="-7.5" height="89.999996" fill-opacity="0.102"/></g></mask><clipPath id="7cddf930d5"><path d="M 0.078125 0.519531 L 16.878906 0.519531 L 16.878906 17.558594 L 0.078125 17.558594 Z M 0.078125 0.519531 " clip-rule="nonzero"/></clipPath><clipPath id="883cf785c4"><rect x="0" width="17" y="0" height="18"/></clipPath></defs><rect x="-7.5" width="90" fill="#ffffff" y="-7.5" height="89.999996" fill-opacity="1"/><rect x="-7.5" width="90" fill="#ffffff" y="-7.5" height="89.999996" fill-opacity="1"/><rect x="-7.5" width="90" fill="#ffffff" y="-7.5" height="89.999996" fill-opacity="1"/><path fill="#ffffff" d="M 16.972656 19.972656 C 10.546875 19.972656 5.335938 25.242188 5.335938 31.742188 L 5.335938 60.359375 L 62.308594 60.359375 C 68.734375 60.359375 73.945312 55.089844 73.945312 48.589844 L 73.945312 19.972656 Z M 16.972656 19.972656 " fill-opacity="1" fill-rule="nonzero"/><g clip-path="url(#8ef4f07dc2)"><path fill="#000000" d="M 62.308594 61.183594 L 4.523438 61.183594 L 4.523438 31.742188 C 4.523438 28.378906 5.820312 25.214844 8.171875 22.839844 C 10.523438 20.460938 13.648438 19.148438 16.972656 19.148438 L 74.757812 19.148438 L 74.757812 48.589844 C 74.757812 51.953125 73.460938 55.113281 71.109375 57.492188 C 68.757812 59.871094 65.632812 61.183594 62.308594 61.183594 Z M 6.148438 59.539062 L 62.308594 59.539062 C 65.199219 59.539062 67.917969 58.398438 69.960938 56.332031 C 72.003906 54.261719 73.132812 51.515625 73.132812 48.589844 L 73.132812 20.792969 L 16.972656 20.792969 C 14.082031 20.792969 11.363281 21.933594 9.320312 24 C 7.273438 26.066406 6.148438 28.816406 6.148438 31.742188 Z M 6.148438 59.539062 " fill-opacity="1" fill-rule="nonzero"/></g><g clip-path="url(#fab623f34a)"><path fill="#000000" d="M 23.082031 26.09375 C 23.082031 26.792969 23.015625 27.488281 22.878906 28.171875 C 22.746094 28.859375 22.542969 29.527344 22.28125 30.171875 C 22.015625 30.820312 21.691406 31.433594 21.304688 32.015625 C 20.921875 32.597656 20.484375 33.136719 19.996094 33.632812 C 19.507812 34.125 18.972656 34.566406 18.398438 34.957031 C 17.824219 35.347656 17.214844 35.675781 16.578125 35.941406 C 15.9375 36.210938 15.277344 36.414062 14.601562 36.550781 C 13.921875 36.683594 13.234375 36.753906 12.542969 36.753906 C 11.851562 36.753906 11.167969 36.683594 10.488281 36.550781 C 9.808594 36.414062 9.148438 36.210938 8.511719 35.941406 C 7.871094 35.675781 7.265625 35.347656 6.6875 34.957031 C 6.113281 34.566406 5.582031 34.125 5.089844 33.632812 C 4.601562 33.136719 4.164062 32.597656 3.78125 32.015625 C 3.398438 31.433594 3.070312 30.820312 2.808594 30.171875 C 2.542969 29.527344 2.34375 28.859375 2.207031 28.171875 C 2.074219 27.488281 2.003906 26.792969 2.003906 26.09375 C 2.003906 25.394531 2.074219 24.699219 2.207031 24.015625 C 2.34375 23.328125 2.542969 22.660156 2.808594 22.015625 C 3.070312 21.367188 3.398438 20.753906 3.78125 20.171875 C 4.164062 19.589844 4.601562 19.050781 5.089844 18.554688 C 5.582031 18.0625 6.113281 17.621094 6.6875 17.230469 C 7.265625 16.839844 7.871094 16.511719 8.511719 16.246094 C 9.148438 15.976562 9.808594 15.773438 10.488281 15.640625 C 11.167969 15.503906 11.851562 15.433594 12.542969 15.433594 C 13.234375 15.433594 13.921875 15.503906 14.601562 15.640625 C 15.277344 15.773438 15.9375 15.976562 16.578125 16.246094 C 17.214844 16.511719 17.824219 16.839844 18.398438 17.230469 C 18.972656 17.621094 19.507812 18.0625 19.996094 18.554688 C 20.484375 19.050781 20.921875 19.589844 21.304688 20.171875 C 21.691406 20.753906 22.015625 21.367188 22.28125 22.015625 C 22.542969 22.660156 22.746094 23.328125 22.878906 24.015625 C 23.015625 24.699219 23.082031 25.394531 23.082031 26.09375 Z M 23.082031 26.09375 " fill-opacity="1" fill-rule="nonzero"/></g><g mask="url(#82e3f61eb5)"><g transform="matrix(1, 0, 0, 1, 4, 17)"><g clip-path="url(#883cf785c4)"><g clip-path="url(#7cddf930d5)"><path fill="#000000" d="M 16.746094 9.09375 C 16.746094 9.636719 16.691406 10.179688 16.589844 10.710938 C 16.484375 11.246094 16.328125 11.765625 16.121094 12.269531 C 15.914062 12.773438 15.664062 13.25 15.363281 13.703125 C 15.0625 14.15625 14.722656 14.574219 14.34375 14.960938 C 13.960938 15.34375 13.546875 15.691406 13.101562 15.992188 C 12.652344 16.292969 12.179688 16.550781 11.683594 16.757812 C 11.183594 16.96875 10.671875 17.125 10.144531 17.230469 C 9.617188 17.335938 9.082031 17.390625 8.542969 17.390625 C 8.003906 17.390625 7.472656 17.335938 6.945312 17.230469 C 6.414062 17.125 5.902344 16.96875 5.40625 16.757812 C 4.90625 16.550781 4.433594 16.292969 3.988281 15.992188 C 3.539062 15.691406 3.125 15.34375 2.742188 14.960938 C 2.363281 14.574219 2.023438 14.15625 1.722656 13.703125 C 1.425781 13.25 1.171875 12.773438 0.964844 12.269531 C 0.757812 11.765625 0.605469 11.246094 0.5 10.710938 C 0.394531 10.179688 0.339844 9.636719 0.339844 9.09375 C 0.339844 8.550781 0.394531 8.007812 0.5 7.476562 C 0.605469 6.941406 0.757812 6.421875 0.964844 5.917969 C 1.171875 5.414062 1.425781 4.9375 1.722656 4.484375 C 2.023438 4.03125 2.363281 3.613281 2.742188 3.226562 C 3.125 2.84375 3.539062 2.496094 3.988281 2.195312 C 4.433594 1.894531 4.90625 1.636719 5.40625 1.429688 C 5.902344 1.21875 6.414062 1.0625 6.945312 0.957031 C 7.472656 0.851562 8.003906 0.796875 8.542969 0.796875 C 9.082031 0.796875 9.617188 0.851562 10.144531 0.957031 C 10.671875 1.0625 11.183594 1.21875 11.683594 1.429688 C 12.179688 1.636719 12.652344 1.894531 13.101562 2.195312 C 13.546875 2.496094 13.960938 2.84375 14.34375 3.226562 C 14.722656 3.613281 15.0625 4.03125 15.363281 4.484375 C 15.664062 4.9375 15.914062 5.414062 16.121094 5.917969 C 16.328125 6.421875 16.484375 6.941406 16.589844 7.476562 C 16.691406 8.007812 16.746094 8.550781 16.746094 9.09375 Z M 16.746094 9.09375 " fill-opacity="1" fill-rule="nonzero"/></g></g></g></g></svg>