<svg xmlns="http://www.w3.org/2000/svg" xmlns:xlink="http://www.w3.org/1999/xlink" width="100" zoomAndPan="magnify" viewBox="0 0 75 74.999997" height="100" preserveAspectRatio="xMidYMid meet" version="1.0"><defs><clipPath id="822c4c4482"><path d="M 0 13.078125 L 75 13.078125 L 75 61.828125 L 0 61.828125 Z M 0 13.078125 " clip-rule="nonzero"/></clipPath></defs><rect x="-7.5" width="90" fill="#ffffff" y="-7.5" height="89.999996" fill-opacity="1"/><rect x="-7.5" width="90" fill="#ffffff" y="-7.5" height="89.999996" fill-opacity="1"/><g clip-path="url(#822c4c4482)"><path fill="#000000" d="M 73.878906 34.628906 C 69.859375 28.210938 58.191406 13.078125 37.5 13.078125 C 16.8125 13.078125 5.144531 28.210938 1.125 34.628906 C 0.0429688 36.355469 0.0429688 38.550781 1.125 40.277344 C 5.144531 46.695312 16.8125 61.828125 37.5 61.828125 C 58.191406 61.828125 69.859375 46.695312 73.878906 40.277344 C 74.960938 38.550781 74.960938 36.355469 73.878906 34.628906 Z M 37.5 53.359375 C 28.699219 53.359375 21.5625 46.238281 21.5625 37.453125 C 21.5625 28.667969 28.699219 21.546875 37.5 21.546875 C 46.304688 21.546875 53.441406 28.667969 53.441406 37.453125 C 53.441406 46.238281 46.304688 53.359375 37.5 53.359375 Z M 42.816406 34.800781 C 41.347656 34.800781 40.160156 33.613281 40.160156 32.152344 C 40.160156 31.425781 40.453125 30.777344 40.921875 30.296875 C 39.882812 29.800781 38.730469 29.5 37.5 29.5 C 33.101562 29.5 29.53125 33.058594 29.53125 37.453125 C 29.53125 41.847656 33.101562 45.40625 37.5 45.40625 C 41.902344 45.40625 45.472656 41.847656 45.472656 37.453125 C 45.472656 36.226562 45.167969 35.078125 44.671875 34.039062 C 44.191406 34.507812 43.539062 34.800781 42.816406 34.800781 Z M 42.816406 34.800781 " fill-opacity="1" fill-rule="nonzero"/></g></svg>