<svg xmlns="http://www.w3.org/2000/svg" xmlns:xlink="http://www.w3.org/1999/xlink" width="100" zoomAndPan="magnify" viewBox="0 0 75 74.999997" height="100" preserveAspectRatio="xMidYMid meet" version="1.0"><defs><filter x="0%" y="0%" width="100%" height="100%" id="7a408b3db6"><feColorMatrix values="0 0 0 0 1 0 0 0 0 1 0 0 0 0 1 0 0 0 1 0" color-interpolation-filters="sRGB"/></filter><clipPath id="bbdfd3f1b6"><path d="M 3.449219 3.449219 L 71.699219 3.449219 L 71.699219 71.699219 L 3.449219 71.699219 Z M 3.449219 3.449219 " clip-rule="nonzero"/></clipPath><mask id="635a7ebb8d"><g filter="url(#7a408b3db6)"><rect x="-7.5" width="90" fill="#000000" y="-7.5" height="89.999996" fill-opacity="0.3"/></g></mask><clipPath id="4d155888f6"><rect x="0" width="65" y="0" height="65"/></clipPath></defs><rect x="-7.5" width="90" fill="#ffffff" y="-7.5" height="89.999996" fill-opacity="1"/><rect x="-7.5" width="90" fill="#ffffff" y="-7.5" height="89.999996" fill-opacity="1"/><g clip-path="url(#bbdfd3f1b6)"><path fill="#000000" d="M 12.898438 71.523438 L 61.898438 71.523438 C 67.207031 71.523438 71.523438 67.207031 71.523438 61.898438 L 71.523438 12.898438 C 71.523438 7.589844 67.207031 3.273438 61.898438 3.273438 L 12.898438 3.273438 C 7.589844 3.273438 3.273438 7.589844 3.273438 12.898438 L 3.273438 61.898438 C 3.273438 67.207031 7.589844 71.523438 12.898438 71.523438 Z M 66.273438 61.898438 C 66.273438 64.3125 64.3125 66.273438 61.898438 66.273438 L 40.023438 66.273438 L 40.023438 50.523438 L 66.273438 50.523438 Z M 66.273438 45.273438 L 40.023438 45.273438 L 40.023438 29.523438 L 66.273438 29.523438 Z M 8.523438 12.898438 C 8.523438 10.484375 10.484375 8.523438 12.898438 8.523438 L 61.898438 8.523438 C 64.3125 8.523438 66.273438 10.484375 66.273438 12.898438 L 66.273438 24.273438 L 8.523438 24.273438 Z M 8.523438 29.523438 L 34.773438 29.523438 L 34.773438 45.273438 L 8.523438 45.273438 Z M 8.523438 50.523438 L 34.773438 50.523438 L 34.773438 66.273438 L 12.898438 66.273438 C 10.484375 66.273438 8.523438 64.3125 8.523438 61.898438 Z M 8.523438 50.523438 " fill-opacity="1" fill-rule="nonzero"/></g><g mask="url(#635a7ebb8d)"><g transform="matrix(1, 0, 0, 1, 5, 5)"><g clip-path="url(#4d155888f6)"><path fill="#000000" d="M 61.273438 40.273438 L 35.023438 40.273438 L 35.023438 24.523438 L 61.273438 24.523438 Z M 29.773438 24.523438 L 3.523438 24.523438 L 3.523438 40.273438 L 29.773438 40.273438 Z M 3.523438 56.898438 C 3.523438 59.3125 5.484375 61.273438 7.898438 61.273438 L 29.773438 61.273438 L 29.773438 45.523438 L 3.523438 45.523438 Z M 35.023438 61.273438 L 56.898438 61.273438 C 59.3125 61.273438 61.273438 59.3125 61.273438 56.898438 L 61.273438 45.523438 L 35.023438 45.523438 Z M 56.898438 3.523438 L 7.898438 3.523438 C 5.484375 3.523438 3.523438 5.484375 3.523438 7.898438 L 3.523438 19.273438 L 61.273438 19.273438 L 61.273438 7.898438 C 61.273438 5.484375 59.3125 3.523438 56.898438 3.523438 Z M 56.898438 3.523438 " fill-opacity="1" fill-rule="nonzero"/></g></g></g></svg>