<svg xmlns="http://www.w3.org/2000/svg" xmlns:xlink="http://www.w3.org/1999/xlink" width="100" zoomAndPan="magnify" viewBox="0 0 75 74.999997" height="100" preserveAspectRatio="xMidYMid meet" version="1.0"><defs><clipPath id="d7ee19d297"><path d="M 5.371094 7.5 L 69.871094 7.5 L 69.871094 29 L 5.371094 29 Z M 5.371094 7.5 " clip-rule="nonzero"/></clipPath><clipPath id="f15590d27c"><path d="M 34.0625 25.523438 L 67.921875 25.523438 L 67.921875 67.5 L 34.0625 67.5 Z M 34.0625 25.523438 " clip-rule="nonzero"/></clipPath></defs><rect x="-7.5" width="90" fill="#ffffff" y="-7.5" height="89.999996" fill-opacity="1"/><rect x="-7.5" width="90" fill="#ffffff" y="-7.5" height="89.999996" fill-opacity="1"/><g clip-path="url(#d7ee19d297)"><path fill="#000000" d="M 20.75 13.375 C 22.101562 13.375 23.355469 14.140625 24.101562 15.417969 C 24.273438 15.71875 24.171875 16.105469 23.871094 16.277344 C 23.570312 16.449219 23.183594 16.347656 23.007812 16.050781 C 22.492188 15.160156 21.648438 14.632812 20.75 14.632812 C 19.28125 14.632812 18.167969 16.050781 18.167969 17.929688 C 18.167969 19.808594 19.28125 21.226562 20.75 21.226562 C 21.742188 21.226562 22.660156 20.582031 23.148438 19.542969 C 23.296875 19.230469 23.671875 19.09375 23.988281 19.238281 C 24.300781 19.386719 24.4375 19.761719 24.289062 20.074219 C 23.589844 21.558594 22.234375 22.484375 20.75 22.484375 C 18.5625 22.484375 16.910156 20.523438 16.910156 17.929688 C 16.910156 15.332031 18.5625 13.375 20.75 13.375 Z M 28.539062 14.75 C 28.539062 14.40625 28.820312 14.125 29.167969 14.125 C 29.519531 14.125 29.800781 14.40625 29.800781 14.75 L 29.800781 21.226562 L 33.554688 21.226562 C 33.902344 21.226562 34.1875 21.507812 34.1875 21.855469 C 34.1875 22.203125 33.902344 22.484375 33.554688 22.484375 L 29.167969 22.484375 C 28.820312 22.484375 28.539062 22.203125 28.539062 21.855469 Z M 38.007812 14.003906 C 38.007812 13.65625 38.289062 13.375 38.636719 13.375 C 38.984375 13.375 39.269531 13.65625 39.269531 14.003906 L 39.269531 21.855469 C 39.269531 22.203125 38.984375 22.484375 38.636719 22.484375 C 38.289062 22.484375 38.007812 22.203125 38.007812 21.855469 Z M 46.449219 13.375 C 47.800781 13.375 49.054688 14.140625 49.796875 15.417969 C 49.972656 15.71875 49.871094 16.105469 49.570312 16.277344 C 49.269531 16.449219 48.882812 16.347656 48.707031 16.050781 C 48.191406 15.160156 47.347656 14.632812 46.449219 14.632812 C 44.976562 14.632812 43.867188 16.050781 43.867188 17.929688 C 43.867188 19.808594 44.976562 21.226562 46.449219 21.226562 C 47.441406 21.226562 48.359375 20.582031 48.847656 19.542969 C 48.996094 19.230469 49.371094 19.09375 49.683594 19.238281 C 50 19.386719 50.136719 19.761719 49.988281 20.074219 C 49.289062 21.558594 47.933594 22.484375 46.449219 22.484375 C 44.257812 22.484375 42.605469 20.523438 42.605469 17.929688 C 42.605469 15.332031 44.257812 13.375 46.449219 13.375 Z M 53.246094 14.371094 C 53.246094 14.023438 53.527344 13.742188 53.875 13.742188 C 54.222656 13.742188 54.503906 14.023438 54.503906 14.371094 L 54.503906 17.675781 L 58.457031 13.628906 C 58.699219 13.382812 59.097656 13.375 59.347656 13.617188 C 59.597656 13.859375 59.601562 14.257812 59.359375 14.503906 L 56.722656 17.207031 L 59.835938 21.484375 C 60.042969 21.765625 59.976562 22.160156 59.695312 22.363281 C 59.585938 22.445312 59.457031 22.484375 59.328125 22.484375 C 59.132812 22.484375 58.9375 22.390625 58.816406 22.222656 L 55.832031 18.121094 L 54.503906 19.476562 L 54.503906 21.660156 C 54.503906 22.007812 54.222656 22.289062 53.875 22.289062 C 53.527344 22.289062 53.246094 22.007812 53.246094 21.660156 Z M 15.3125 28.359375 L 33.585938 28.359375 C 33.539062 28.085938 33.507812 27.824219 33.515625 27.574219 C 33.550781 26.382812 34.191406 25.445312 35.363281 24.859375 C 37.285156 23.902344 39.128906 24.722656 40.292969 27.046875 L 40.953125 28.359375 L 59.933594 28.359375 C 65.410156 28.359375 69.867188 23.917969 69.867188 18.460938 L 69.867188 17.394531 C 69.867188 11.941406 65.410156 7.5 59.933594 7.5 L 15.3125 7.5 C 9.832031 7.5 5.375 11.941406 5.375 17.394531 L 5.375 18.460938 C 5.375 23.917969 9.832031 28.359375 15.3125 28.359375 " fill-opacity="1" fill-rule="nonzero"/></g><g clip-path="url(#f15590d27c)"><path fill="#000000" d="M 53.472656 65.164062 C 54.003906 65.984375 54.746094 67.351562 54.746094 67.351562 C 54.75 67.359375 54.757812 67.378906 54.761719 67.382812 C 54.796875 67.457031 54.871094 67.5 54.949219 67.5 C 54.980469 67.5 55.011719 67.492188 55.042969 67.476562 L 67.8125 61.125 C 67.863281 61.101562 67.894531 61.046875 67.914062 60.992188 C 67.929688 60.941406 67.921875 60.871094 67.894531 60.820312 C 67.589844 60.214844 67.382812 59.789062 67.316406 59.628906 L 67.214844 59.378906 C 66.523438 57.726562 65.808594 56.011719 66.101562 54.144531 C 66.421875 52.085938 66.863281 49.265625 65.25 43.738281 C 64.75 42.019531 63.09375 38.320312 62.140625 36.421875 L 61.324219 34.789062 C 60.871094 33.890625 60.144531 33.351562 59.378906 33.351562 C 59.113281 33.351562 58.839844 33.414062 58.566406 33.539062 C 57.867188 33.855469 57.386719 34.324219 57.1875 34.886719 C 56.996094 35.421875 57.054688 36.023438 57.359375 36.628906 C 57.410156 36.726562 57.417969 36.839844 57.382812 36.949219 C 57.347656 37.054688 57.269531 37.140625 57.171875 37.1875 C 56.96875 37.292969 56.707031 37.203125 56.605469 36.996094 L 55.847656 35.488281 C 55.421875 34.636719 54.648438 34.148438 53.730469 34.148438 C 53.367188 34.148438 52.996094 34.226562 52.632812 34.378906 C 52.125 34.589844 51.394531 34.992188 51.140625 35.671875 C 50.996094 36.0625 51.082031 36.574219 51.261719 36.929688 L 51.636719 37.675781 C 51.738281 37.882812 51.65625 38.136719 51.449219 38.238281 C 51.246094 38.339844 50.984375 38.253906 50.882812 38.050781 L 50.300781 36.886719 C 49.722656 35.738281 48.558594 35.238281 47.347656 35.625 C 46.734375 35.824219 46.296875 36.21875 46.050781 36.804688 C 45.738281 37.539062 45.789062 38.476562 46.179688 39.253906 C 46.230469 39.355469 46.238281 39.46875 46.203125 39.574219 C 46.167969 39.679688 46.089844 39.765625 45.992188 39.816406 C 45.785156 39.917969 45.527344 39.832031 45.425781 39.628906 L 39.355469 27.511719 C 38.460938 25.734375 37.203125 25.117188 35.832031 25.796875 C 35.003906 26.207031 34.589844 26.800781 34.566406 27.605469 C 34.550781 28.199219 34.746094 28.90625 35.144531 29.707031 L 45.523438 50.410156 C 45.585938 50.542969 45.578125 50.703125 45.496094 50.824219 C 45.417969 50.945312 45.285156 51.015625 45.125 51.015625 C 44.894531 51.003906 42.765625 50.785156 38.632812 46.507812 C 38.199219 46.058594 37.066406 45.011719 35.929688 45.011719 C 35.472656 45.011719 35.066406 45.179688 34.722656 45.507812 C 33.757812 46.417969 34 47.484375 34.546875 48.175781 C 34.554688 48.183594 35.566406 49.457031 36.507812 50.574219 C 37.089844 51.261719 37.605469 51.894531 38.085938 52.480469 C 40.960938 55.996094 42.542969 57.929688 49.773438 61.667969 C 50.585938 62.085938 52.148438 63.097656 53.472656 65.164062 " fill-opacity="1" fill-rule="nonzero"/></g></svg>