<svg xmlns="http://www.w3.org/2000/svg" xmlns:xlink="http://www.w3.org/1999/xlink" width="100" zoomAndPan="magnify" viewBox="0 0 75 74.999997" height="100" preserveAspectRatio="xMidYMid meet" version="1.0"><defs><clipPath id="8e97cc5a71"><path d="M 0 60.085938 L 56.132812 60.085938 L 56.132812 71.476562 L 0 71.476562 Z M 0 60.085938 " clip-rule="nonzero"/></clipPath></defs><rect x="-7.5" width="90" fill="#ffffff" y="-7.5" height="89.999996" fill-opacity="1"/><rect x="-7.5" width="90" fill="#ffffff" y="-7.5" height="89.999996" fill-opacity="1"/><path fill="#040606" d="M 3.105469 33.507812 L 52.347656 33.507812 L 52.347656 37.304688 L 3.105469 37.304688 Z M -0.679688 31.589844 C -0.679688 30.550781 0.167969 29.714844 1.210938 29.714844 L 54.242188 29.714844 C 55.285156 29.714844 56.132812 30.53125 56.132812 31.589844 L 56.132812 39.21875 C 56.132812 40.257812 55.285156 41.101562 54.242188 41.101562 L 1.210938 41.101562 C 0.167969 41.101562 -0.679688 40.277344 -0.679688 39.21875 L -0.679688 31.589844 " fill-opacity="1" fill-rule="nonzero"/><path fill="#040606" d="M 3.105469 48.691406 L 52.347656 48.691406 L 52.347656 52.492188 L 3.105469 52.492188 Z M -0.679688 46.777344 C -0.679688 45.738281 0.167969 44.894531 1.210938 44.894531 L 54.242188 44.894531 C 55.285156 44.894531 56.132812 45.71875 56.132812 46.777344 L 56.132812 54.410156 C 56.132812 55.445312 55.285156 56.289062 54.242188 56.289062 L 1.210938 56.289062 C 0.167969 56.289062 -0.679688 55.464844 -0.679688 54.410156 L -0.679688 46.777344 " fill-opacity="1" fill-rule="nonzero"/><path fill="#040606" d="M 63.785156 12.625 L 67.605469 16.734375 L 59.917969 16.734375 Z M 63.785156 12.625 " fill-opacity="1" fill-rule="nonzero"/><path fill="#040606" d="M 56.132812 6.925781 L 71.285156 6.925781 L 71.285156 22.117188 L 56.132812 22.117188 Z M 3.105469 6.925781 L 52.347656 6.925781 L 52.347656 22.117188 L 3.105469 22.117188 Z M -0.679688 6.894531 C -0.679688 4.816406 1.042969 3.132812 3.078125 3.132812 L 71.316406 3.132812 C 73.386719 3.132812 75.070312 4.84375 75.070312 6.894531 L 75.070312 22.148438 C 75.070312 24.226562 73.339844 25.910156 71.316406 25.910156 L 3.078125 25.910156 C 1 25.910156 -0.679688 24.199219 -0.679688 22.148438 L -0.679688 6.894531 " fill-opacity="1" fill-rule="nonzero"/><g clip-path="url(#8e97cc5a71)"><path fill="#040606" d="M 3.105469 63.878906 L 52.347656 63.878906 L 52.347656 67.675781 L 3.105469 67.675781 Z M -0.679688 61.964844 C -0.679688 60.925781 0.167969 60.085938 1.210938 60.085938 L 54.242188 60.085938 C 55.285156 60.085938 56.132812 60.90625 56.132812 61.964844 L 56.132812 69.597656 C 56.132812 70.636719 55.285156 71.476562 54.242188 71.476562 L 1.210938 71.476562 C 0.167969 71.476562 -0.679688 70.65625 -0.679688 69.597656 L -0.679688 61.964844 " fill-opacity="1" fill-rule="nonzero"/></g></svg>